<svg width="48" height="48" viewBox="0 0 48 48" fill="none" xmlns="http://www.w3.org/2000/svg">
<path d="M31.4529 6.72266L12.9529 6.72266C9.62639 6.72266 6.92969 9.41936 6.92969 12.7459V35.9785C6.92969 39.305 9.62639 42.0017 12.9529 42.0017H35.325C38.6516 42.0017 41.3483 39.305 41.3483 35.9785V16.618" stroke="#1890FF" stroke-width="3.44186" stroke-linecap="round"/>
<path fill-rule="evenodd" clip-rule="evenodd" d="M36.1111 8.16905C36.4293 8.063 36.5884 8.00998 36.728 7.93249C37.0093 7.77632 37.2412 7.54443 37.3973 7.26312C37.4748 7.12352 37.5278 6.96445 37.6339 6.6463L37.9978 5.55451C38.1082 5.22336 38.4181 5 38.7672 5C39.1162 5 39.4261 5.22336 39.5365 5.55451L39.9004 6.6463C40.0065 6.96445 40.0595 7.12352 40.137 7.26312C40.2932 7.54443 40.5251 7.77632 40.8064 7.93249C40.946 8.00998 41.105 8.063 41.4232 8.16905L42.515 8.53298C42.8461 8.64337 43.0695 8.95326 43.0695 9.30233C43.0695 9.65139 42.8461 9.96129 42.515 10.0717L41.4232 10.4356C41.105 10.5416 40.946 10.5947 40.8064 10.6722C40.5251 10.8283 40.2932 11.0602 40.137 11.3415C40.0595 11.4811 40.0065 11.6402 39.9004 11.9583L39.5365 13.0501C39.4261 13.3813 39.1162 13.6047 38.7672 13.6047C38.4181 13.6047 38.1082 13.3813 37.9978 13.0501L37.6339 11.9583C37.5278 11.6402 37.4748 11.4811 37.3973 11.3415C37.2412 11.0602 37.0093 10.8283 36.728 10.6722C36.5884 10.5947 36.4293 10.5416 36.1111 10.4356L35.0194 10.0717C34.6882 9.96129 34.4648 9.65139 34.4648 9.30233C34.4648 8.95327 34.6882 8.64337 35.0194 8.53298L36.1111 8.16905Z" fill="#1890FF"/>
<path d="M31.0801 30.9219L31.0801 23.2326C31.0801 22.3632 31.7899 21.6758 32.6875 21.6758C33.5852 21.6758 34.295 22.3632 34.295 23.2326L34.295 30.9219C34.295 31.7912 33.5852 32.4787 32.6875 32.4787C31.7899 32.4787 31.0801 31.7912 31.0801 30.9219Z" fill="#1890FF"/>
<path d="M13.8184 31.2254C13.8184 30.9745 13.9055 30.7236 14.0144 30.4726L19.3303 17.9032C19.7007 17.0136 20.3543 16.5117 21.2911 16.5117H21.4872C22.424 16.5117 23.0558 17.0136 23.4262 17.9032L28.7421 30.4726C28.851 30.7464 28.9163 30.9745 28.9163 31.1798C28.9163 32.1151 28.2192 32.8679 27.3259 32.8679C26.5416 32.8679 26.0405 32.3888 25.7137 31.6588L24.6898 29.1495H17.9796L16.912 31.7729C16.6288 32.4801 16.0624 32.8679 15.3652 32.8679C14.4937 32.8679 13.8184 32.1379 13.8184 31.2254ZM19.2214 26.0471H23.448L21.3347 20.7775L19.2214 26.0471Z" fill="#1890FF"/>
<circle cx="32.6212" cy="18.3556" r="1.84386" fill="#1890FF"/>
</svg>
