<svg width="48" height="48" viewBox="0 0 48 48" fill="none" xmlns="http://www.w3.org/2000/svg">
<path d="M26.4616 6.00011C26.3522 5.99995 26.2402 6 26.1253 6.00006L25.9575 6.00011H26.4616Z" fill="#1890FF"/>
<path d="M25.9254 6.00011L21.9824 6.00011C20.5663 6.00009 19.3975 6.00007 18.4455 6.07891C17.4566 6.1608 16.5476 6.33655 15.6938 6.77749C14.3697 7.46129 13.2932 8.55239 12.6185 9.89442C12.1835 10.7598 12.0101 11.6811 11.9293 12.6834C11.8515 13.6484 11.8515 14.833 11.8516 16.2683V20.6309C11.8516 21.751 11.8516 22.3111 12.0696 22.7389C12.2613 23.1152 12.5673 23.4212 12.9436 23.6129C13.3714 23.8309 13.9315 23.8309 15.0516 23.8309H15.6927C16.5253 23.8309 16.9416 23.8309 17.2955 23.9706C17.6079 24.0939 17.8843 24.2939 18.0991 24.5522C18.3423 24.8447 18.4723 25.2402 18.7325 26.0312L19.2405 27.5759C19.4335 28.1628 19.53 28.4562 19.6979 28.6969C19.8465 28.91 20.0353 29.0921 20.2535 29.233C20.5001 29.3921 20.7968 29.478 21.3902 29.6499L23.6155 30.2943C24.4437 30.5341 24.8578 30.6541 25.1651 30.8968C25.4363 31.111 25.6474 31.3919 25.7777 31.712C25.9254 32.0746 25.9254 32.5058 25.9254 33.368V34.8955C25.9254 36.0156 25.9254 36.5757 26.1434 37.0035C26.3351 37.3798 26.6411 37.6858 27.0174 37.8775C27.4452 38.0955 28.0053 38.0955 29.1254 38.0955H29.8684C31.2845 38.0956 32.4532 38.0956 33.4053 38.0167C34.3942 37.9348 35.3032 37.7591 36.157 37.3182C37.4811 36.6344 38.5576 35.5432 39.2322 34.2012C39.6673 33.3358 39.8407 32.4145 39.9215 31.4122C39.9993 30.4473 39.9992 29.2627 39.9992 27.8274V20.2647H27.6846C26.713 20.2647 25.9254 19.4664 25.9254 18.4817V6.00011Z" fill="#1890FF"/>
<path d="M39.9992 20.2437L39.9993 20.0621C39.9993 19.9448 39.9994 19.8304 39.9992 19.7188V20.2437Z" fill="#1890FF"/>
<path d="M39.651 16.6986C39.4806 16.1701 39.2496 15.6629 38.9623 15.1877C38.5249 14.4643 37.9277 13.8596 37.1375 13.0594L33.0344 8.9007C32.2449 8.09969 31.6483 7.49445 30.9345 7.05113C30.4657 6.75991 29.9653 6.52575 29.4438 6.35301V16.6986H39.651Z" fill="#1890FF"/>
<path fill-rule="evenodd" clip-rule="evenodd" d="M11.2613 32.4125C11.817 32.2247 12.0949 32.1308 12.3254 31.9718C12.5295 31.831 12.7056 31.6534 12.8448 31.4482C13.0019 31.2164 13.0936 30.9378 13.2768 30.3805L14.0565 28.0098C14.2432 27.4422 14.7732 27.0586 15.3707 27.0586C15.9682 27.0586 16.4982 27.4422 16.6849 28.0098L17.4646 30.3805C17.6478 30.9378 17.7395 31.2164 17.8966 31.4482C18.0358 31.6534 18.2119 31.831 18.416 31.9718C18.6465 32.1308 18.9244 32.2247 19.4801 32.4125L21.7799 33.1894C22.3545 33.3836 22.7414 33.9226 22.7414 34.5292C22.7414 35.1358 22.3545 35.6749 21.7799 35.869L19.4801 36.646C18.9244 36.8338 18.6465 36.9276 18.416 37.0867C18.2119 37.2275 18.0358 37.4051 17.8966 37.6103C17.7395 37.842 17.6478 38.1207 17.4646 38.6779L16.6849 41.0486C16.4982 41.6162 15.9682 41.9999 15.3707 41.9999C14.7732 41.9999 14.2432 41.6162 14.0565 41.0486L13.2768 38.6779C13.0936 38.1207 13.0019 37.842 12.8448 37.6103C12.7056 37.4051 12.5295 37.2275 12.3254 37.0867C12.0949 36.9276 11.817 36.8338 11.2613 36.646L8.96155 35.869C8.38686 35.6749 8 35.1358 8 34.5292C8 33.9226 8.38686 33.3836 8.96155 33.1894L11.2613 32.4125Z" fill="#BABABA"/>
</svg>
