<svg width="48" height="48" viewBox="0 0 48 48" fill="none" xmlns="http://www.w3.org/2000/svg">
<path d="M12.8555 9.99902V12.999H15.3555V9.99902C15.3555 8.54033 15.9349 7.14139 16.9664 6.10994C17.9978 5.07849 19.3968 4.49902 20.8555 4.49902C22.3142 4.49902 23.7131 5.07849 24.7446 6.10994C25.776 7.14139 26.3555 8.54033 26.3555 9.99902V12.999H28.8555V9.99902C28.8555 7.87729 28.0126 5.84246 26.5123 4.34217C25.012 2.84188 22.9772 1.99902 20.8555 1.99902C18.7337 1.99902 16.6989 2.84188 15.1986 4.34217C13.6983 5.84246 12.8555 7.87729 12.8555 9.99902Z" fill="#40A9FF"/>
<path d="M36.8555 18.248C36.8555 16.5904 36.197 15.0007 35.0249 13.8286C33.8528 12.6565 32.2631 11.998 30.6055 11.998H11.1055C9.44787 11.998 7.85815 12.6565 6.68605 13.8286C5.51395 15.0007 4.85547 16.5904 4.85547 18.248V33.748C4.85547 35.4056 5.51395 36.9954 6.68605 38.1675C7.85815 39.3396 9.44787 39.998 11.1055 39.998H30.6055C32.2631 39.998 33.8528 39.3396 35.0249 38.1675C36.197 36.9954 36.8555 35.4056 36.8555 33.748V18.248Z" fill="#40A9FF"/>
<path fill-rule="evenodd" clip-rule="evenodd" d="M22.9768 25.1223C23.5394 24.5597 23.8555 23.7966 23.8555 23.001C23.8555 22.2053 23.5394 21.4423 22.9768 20.8797C22.4142 20.317 21.6511 20.001 20.8555 20.001C20.0598 20.001 19.2968 20.317 18.7341 20.8797C18.1715 21.4423 17.8555 22.2053 17.8555 23.001C17.8555 23.7966 18.1715 24.5597 18.7341 25.1223C19.0536 25.4418 19.4377 25.6818 19.8558 25.8295V31.5642H21.8558V25.8293C22.2736 25.6815 22.6575 25.4416 22.9768 25.1223Z" fill="#D9D9D9"/>
<path fill-rule="evenodd" clip-rule="evenodd" d="M22.9768 25.1223C23.5394 24.5597 23.8555 23.7966 23.8555 23.001C23.8555 22.2053 23.5394 21.4423 22.9768 20.8797C22.4142 20.317 21.6511 20.001 20.8555 20.001C20.0598 20.001 19.2968 20.317 18.7341 20.8797C18.1715 21.4423 17.8555 22.2053 17.8555 23.001C17.8555 23.7966 18.1715 24.5597 18.7341 25.1223C19.0536 25.4418 19.4377 25.6818 19.8558 25.8295V31.5642H21.8558V25.8293C22.2736 25.6815 22.6575 25.4416 22.9768 25.1223Z" fill="#F8F9F9"/>
<circle cx="34.8555" cy="33.998" r="12" fill="#C2C2C2"/>
<path d="M39.1239 33.9268C39.6093 33.9268 40.0747 34.1196 40.4179 34.4628C40.7611 34.8059 40.9539 35.2714 40.9539 35.7568V36.3668C40.9539 38.7714 38.6847 41.2468 34.8539 41.2468C31.0231 41.2468 28.7539 38.7714 28.7539 36.3668V35.7568C28.7539 35.2714 28.9467 34.8059 29.2899 34.4628C29.6331 34.1196 30.0986 33.9268 30.5839 33.9268H39.1239Z" fill="#888888"/>
<path d="M39.1239 33.9268C39.6093 33.9268 40.0747 34.1196 40.4179 34.4628C40.7611 34.8059 40.9539 35.2714 40.9539 35.7568V36.3668C40.9539 38.7714 38.6847 41.2468 34.8539 41.2468C31.0231 41.2468 28.7539 38.7714 28.7539 36.3668V35.7568C28.7539 35.2714 28.9467 34.8059 29.2899 34.4628C29.6331 34.1196 30.0986 33.9268 30.5839 33.9268H39.1239Z" fill="#656565"/>
<path d="M34.855 25.998C35.7448 25.998 36.5982 26.3515 37.2273 26.9807C37.8565 27.6099 38.21 28.4632 38.21 29.353C38.21 30.2428 37.8565 31.0962 37.2273 31.7254C36.5982 32.3546 35.7448 32.708 34.855 32.708C33.9652 32.708 33.1118 32.3546 32.4827 31.7254C31.8535 31.0962 31.5 30.2428 31.5 29.353C31.5 28.4632 31.8535 27.6099 32.4827 26.9807C33.1118 26.3515 33.9652 25.998 34.855 25.998Z" fill="#656565"/>
</svg>
