<svg width="48" height="48" viewBox="0 0 48 48" fill="none" xmlns="http://www.w3.org/2000/svg">
<path d="M23.5 12.999C23.8978 12.999 24.2794 13.1571 24.5607 13.4384C24.842 13.7197 25 14.1012 25 14.499V22.999H30.5C30.8978 22.999 31.2794 23.1571 31.5607 23.4384C31.842 23.7197 32 24.1012 32 24.499C32 24.8968 31.842 25.2784 31.5607 25.5597C31.2794 25.841 30.8978 25.999 30.5 25.999H23.5C23.1022 25.999 22.7206 25.841 22.4393 25.5597C22.158 25.2784 22 24.8968 22 24.499V14.499C22 14.1012 22.158 13.7197 22.4393 13.4384C22.7206 13.1571 23.1022 12.999 23.5 12.999Z" fill="#656565"/>
<path d="M24 9C32.284 9 39 15.716 39 24C39 32.284 32.284 39 24 39C15.716 39 9 32.284 9 24C9.00133 23.2253 9.05833 22.467 9.171 21.725C9.22801 21.3329 9.12757 20.9342 8.89161 20.6159C8.65566 20.2976 8.30335 20.0856 7.91161 20.0261C7.51988 19.9667 7.12054 20.0647 6.80079 20.2987C6.48104 20.5326 6.26685 20.8836 6.205 21.275C6.069 22.165 6.00067 23.0733 6 24C6 33.941 14.059 42 24 42C33.941 42 42 33.941 42 24C42 14.059 33.941 6 24 6C19.39 6 15.184 7.734 12 10.584V7.5C12 7.10218 11.842 6.72064 11.5607 6.43934C11.2794 6.15804 10.8978 6 10.5 6C10.1022 6 9.72064 6.15804 9.43934 6.43934C9.15804 6.72064 9 7.10218 9 7.5V14.5C9 14.8978 9.15804 15.2794 9.43934 15.5607C9.72064 15.842 10.1022 16 10.5 16H17.5C17.8978 16 18.2794 15.842 18.5607 15.5607C18.842 15.2794 19 14.8978 19 14.5C19 14.1022 18.842 13.7206 18.5607 13.4393C18.2794 13.158 17.8978 13 17.5 13H13.802C16.5723 10.4236 20.2168 8.99405 24 9Z" fill="#40A9FF"/>
</svg>
