<svg width="24" height="25" viewBox="0 0 24 25" fill="none" xmlns="http://www.w3.org/2000/svg">
<g clip-path="url(#clip0_8355_116383)">
<path d="M6 2.13594C6 1.14182 6.80589 0.335938 7.8 0.335938H16.2L24 8.13594V22.5359C24 23.5301 23.1941 24.3359 22.2 24.3359H7.8C6.80589 24.3359 6 23.5301 6 22.5359V2.13594Z" fill="url(#paint0_linear_8355_116383)"/>
<path d="M16.6031 8.13594H23.0374C23.3938 8.13594 23.5723 7.70508 23.3203 7.45309L16.886 1.01878C16.634 0.766794 16.2031 0.94526 16.2031 1.30162V7.73594C16.2031 7.95685 16.3822 8.13594 16.6031 8.13594Z" fill="#DCE2EB"/>
<path d="M7.7998 1.23633H15.8271L23.0996 8.50879V22.5361C23.0995 23.033 22.6971 23.4354 22.2002 23.4355H7.7998C7.3029 23.4354 6.9005 23.033 6.90039 22.5361V2.13574C6.9005 1.63884 7.3029 1.23643 7.7998 1.23633Z" stroke="black" stroke-opacity="0.06" stroke-width="1.8"/>
</g>
<rect x="0.851562" y="12.5859" width="20.7" height="9.9" rx="1.8" fill="#1890FF"/>
<path d="M3.07293 19.5391V15.1754H3.99552V16.9759H5.86839V15.1754H6.78884V19.5391H5.86839V17.7365H3.99552V19.5391H3.07293ZM7.2633 15.9361V15.1754H10.8471V15.9361H9.51117V19.5391H8.59924V15.9361H7.2633ZM11.3173 15.1754H12.4551L13.6568 18.1072H13.7079L14.9096 15.1754H16.0474V19.5391H15.1525V16.6989H15.1163L13.9871 19.5178H13.3777L12.2484 16.6882H12.2122V19.5391H11.3173V15.1754ZM16.6875 19.5391V15.1754H17.6101V18.7784H19.4809V19.5391H16.6875Z" fill="white"/>
<defs>
<linearGradient id="paint0_linear_8355_116383" x1="15" y1="0.335937" x2="15" y2="24.3359" gradientUnits="userSpaceOnUse">
<stop stop-color="#F2F6FC"/>
<stop offset="1" stop-color="#EDF1F7"/>
</linearGradient>
<clipPath id="clip0_8355_116383">
<rect width="18" height="24" fill="white" transform="translate(6 0.335938)"/>
</clipPath>
</defs>
</svg>
