<svg width="688" height="571" viewBox="0 0 688 571" fill="none" xmlns="http://www.w3.org/2000/svg">
<rect x="117.544" y="148.021" width="454.471" height="280.473" rx="12.9849" fill="white"/>
<mask id="path-2-inside-1_7807_68732" fill="white">
<path d="M139.619 212.942H347.377V240.211H139.619V212.942Z"/>
</mask>
<path d="M139.619 212.942V211.644H138.321V212.942H139.619ZM347.377 212.942H348.676V211.644H347.377V212.942ZM139.619 212.942V214.241H347.377V212.942V211.644H139.619V212.942ZM347.377 212.942H346.079V240.211H347.377H348.676V212.942H347.377ZM139.619 240.211H140.918V212.942H139.619H138.321V240.211H139.619Z" fill="#DBEAFD" mask="url(#path-2-inside-1_7807_68732)"/>
<g opacity="0.5">
<rect x="145.461" y="218.784" width="14.7883" height="14.7883" rx="1.94773" fill="white"/>
<rect x="145.461" y="218.784" width="14.7883" height="14.7883" rx="1.94773" stroke="#DBEAFD" stroke-width="1.29849"/>
</g>
<rect x="179.87" y="222.03" width="63.6259" height="7.79092" rx="2.59697" fill="#D6E7FD"/>
<mask id="path-6-inside-2_7807_68732" fill="white">
<path d="M347.377 212.942H390.227V240.211H347.377V212.942Z"/>
</mask>
<path d="M390.227 212.942H391.526V211.644H390.227V212.942ZM347.377 212.942V214.241H390.227V212.942V211.644H347.377V212.942ZM390.227 212.942H388.929V240.211H390.227H391.526V212.942H390.227Z" fill="#DBEAFD" mask="url(#path-6-inside-2_7807_68732)"/>
<path d="M367.283 220.191C367.578 219.593 368.43 219.593 368.725 220.191L370.063 222.9C370.18 223.138 370.406 223.302 370.668 223.34L373.659 223.775C374.318 223.871 374.582 224.681 374.104 225.147L371.941 227.256C371.751 227.441 371.664 227.707 371.709 227.968L372.22 230.946C372.333 231.603 371.643 232.104 371.053 231.794L368.378 230.388C368.144 230.265 367.864 230.265 367.63 230.388L364.955 231.794C364.365 232.104 363.676 231.603 363.788 230.946L364.299 227.968C364.344 227.707 364.257 227.441 364.068 227.256L361.904 225.147C361.427 224.681 361.69 223.871 362.35 223.775L365.34 223.34C365.602 223.302 365.828 223.138 365.946 222.9L367.283 220.191Z" fill="#99C1FA"/>
<mask id="path-9-inside-3_7807_68732" fill="white">
<path d="M390.228 212.942H510.987V240.211H390.228V212.942Z"/>
</mask>
<path d="M510.987 212.942H512.285V211.644H510.987V212.942ZM390.228 212.942V214.241H510.987V212.942V211.644H390.228V212.942ZM510.987 212.942H509.688V240.211H510.987H512.285V212.942H510.987Z" fill="#DBEAFD" mask="url(#path-9-inside-3_7807_68732)"/>
<mask id="path-11-inside-4_7807_68732" fill="white">
<path d="M510.986 212.942H548.642V240.211H510.986V212.942Z"/>
</mask>
<path d="M548.642 212.942H549.941V211.644H548.642V212.942ZM510.986 212.942V214.241H548.642V212.942V211.644H510.986V212.942ZM548.642 212.942H547.344V240.211H548.642H549.941V212.942H548.642Z" fill="#DBEAFD" mask="url(#path-11-inside-4_7807_68732)"/>
<rect x="520.075" y="223.331" width="15.5818" height="7.79092" rx="2.59697" fill="#DBEAFD"/>
<rect width="409.023" height="27.2682" transform="translate(139.619 240.211)" fill="#E9F1FF"/>
<mask id="path-14-inside-5_7807_68732" fill="white">
<path d="M139.619 240.211H347.377V267.479H139.619V240.211Z"/>
</mask>
<path d="M139.619 240.211V238.912H138.321V240.211H139.619ZM347.377 240.211H348.676V238.912H347.377V240.211ZM139.619 240.211V241.509H347.377V240.211V238.912H139.619V240.211ZM347.377 240.211H346.079V267.479H347.377H348.676V240.211H347.377ZM139.619 267.479H140.918V240.211H139.619H138.321V267.479H139.619Z" fill="#DBEAFD" mask="url(#path-14-inside-5_7807_68732)"/>
<path d="M146.42 245.808H159.29C159.956 245.808 160.496 246.348 160.496 247.014V259.884C160.496 260.55 159.956 261.09 159.29 261.09H146.42C145.754 261.09 145.214 260.55 145.214 259.884V247.014C145.214 246.348 145.754 245.808 146.42 245.808Z" fill="#0964AE"/>
<path d="M146.42 245.808H159.29C159.956 245.808 160.496 246.348 160.496 247.014V259.884C160.496 260.55 159.956 261.09 159.29 261.09H146.42C145.754 261.09 145.214 260.55 145.214 259.884V247.014C145.214 246.348 145.754 245.808 146.42 245.808Z" stroke="#0964AE" stroke-width="0.804341"/>
<path fill-rule="evenodd" clip-rule="evenodd" d="M156.802 250.42C157.097 250.69 157.117 251.148 156.847 251.443L152.43 256.269C152.29 256.422 152.092 256.507 151.885 256.504C151.678 256.501 151.482 256.41 151.347 256.253L149.009 253.539C148.748 253.236 148.782 252.779 149.084 252.518C149.387 252.257 149.844 252.291 150.105 252.594L151.912 254.69L155.779 250.466C156.049 250.171 156.507 250.15 156.802 250.42Z" fill="white"/>
<rect x="179.87" y="249.301" width="63.6259" height="7.79092" rx="2.59697" fill="#D6E7FD"/>
<mask id="path-19-inside-6_7807_68732" fill="white">
<path d="M347.377 240.211H390.227V267.479H347.377V240.211Z"/>
</mask>
<path d="M347.377 240.211H390.227V267.479H347.377V240.211Z" fill="#E9F1FF"/>
<path d="M390.227 240.211H391.526V238.912H390.227V240.211ZM347.377 240.211V241.509H390.227V240.211V238.912H347.377V240.211ZM390.227 240.211H388.929V267.479H390.227H391.526V240.211H390.227Z" fill="#DBEAFD" mask="url(#path-19-inside-6_7807_68732)"/>
<path d="M367.283 247.462C367.578 246.864 368.43 246.864 368.725 247.462L370.063 250.172C370.18 250.409 370.406 250.574 370.668 250.612L373.659 251.046C374.318 251.142 374.582 251.953 374.104 252.418L371.941 254.527C371.751 254.712 371.664 254.978 371.709 255.239L372.22 258.217C372.333 258.874 371.643 259.376 371.053 259.065L368.378 257.659C368.144 257.536 367.864 257.536 367.63 257.659L364.955 259.065C364.365 259.376 363.676 258.874 363.788 258.217L364.299 255.239C364.344 254.978 364.257 254.712 364.068 254.527L361.904 252.418C361.427 251.953 361.69 251.142 362.35 251.046L365.34 250.612C365.602 250.574 365.828 250.409 365.946 250.172L367.283 247.462Z" fill="#99C1FA"/>
<mask id="path-22-inside-7_7807_68732" fill="white">
<path d="M390.228 240.211H510.987V267.479H390.228V240.211Z"/>
</mask>
<path d="M390.228 240.211H510.987V267.479H390.228V240.211Z" fill="#E9F1FF"/>
<path d="M510.987 240.211H512.285V238.912H510.987V240.211ZM390.228 240.211V241.509H510.987V240.211V238.912H390.228V240.211ZM510.987 240.211H509.688V267.479H510.987H512.285V240.211H510.987Z" fill="#DBEAFD" mask="url(#path-22-inside-7_7807_68732)"/>
<circle cx="407.108" cy="254.495" r="7.14168" fill="#DBEAFD" stroke="#598FDF" stroke-width="1.29849"/>
<path d="M413.6 254.496C413.6 256.313 412.854 257.955 411.652 259.133C411.546 259.237 411.437 259.337 411.324 259.433C411.118 259.61 410.9 259.774 410.672 259.924C409.649 260.597 408.424 260.989 407.108 260.989C405.791 260.989 404.566 260.597 403.543 259.924C403.315 259.774 403.098 259.61 402.891 259.433C402.779 259.337 402.669 259.237 402.564 259.133C401.361 257.955 400.615 256.313 400.615 254.496C400.615 250.911 403.522 248.004 407.108 248.004C410.693 248.004 413.6 250.911 413.6 254.496Z" fill="#D5E6FD"/>
<path d="M411.651 259.132C411.546 259.236 411.436 259.336 411.324 259.432C411.117 259.609 410.9 259.773 410.672 259.922C409.649 260.596 408.424 260.988 407.107 260.988C405.791 260.988 404.566 260.596 403.543 259.922C403.315 259.773 403.098 259.609 402.891 259.432C402.779 259.336 402.669 259.236 402.563 259.132C402.823 258.396 403.415 257.802 404.189 257.558L406.131 256.945V256.624C405.889 256.482 405.67 256.318 405.49 256.195C405.156 255.97 404.934 255.617 404.867 255.22L404.764 254.601C404.439 254.601 404.178 254.339 404.178 254.015V252.648C404.178 251.839 404.506 251.107 405.035 250.575C405.566 250.046 406.297 249.718 407.107 249.718C408.725 249.718 410.037 251.03 410.037 252.648V254.015C410.037 254.339 409.776 254.601 409.451 254.601L409.348 255.22C409.281 255.617 409.057 255.97 408.723 256.195C408.543 256.316 408.328 256.482 408.084 256.624V256.945L410.024 257.558C410.799 257.802 411.392 258.396 411.651 259.132Z" fill="#B7D4FB"/>
<rect x="420.093" y="250.6" width="70.1183" height="7.79092" rx="2.59697" fill="#D6E7FD"/>
<mask id="path-28-inside-8_7807_68732" fill="white">
<path d="M510.986 240.211H548.642V267.479H510.986V240.211Z"/>
</mask>
<path d="M510.986 240.211H548.642V267.479H510.986V240.211Z" fill="#E9F1FF"/>
<path d="M548.642 240.211H549.941V238.912H548.642V240.211ZM510.986 240.211V241.509H548.642V240.211V238.912H510.986V240.211ZM548.642 240.211H547.344V267.479H548.642H549.941V240.211H548.642Z" fill="#DBEAFD" mask="url(#path-28-inside-8_7807_68732)"/>
<rect x="520.075" y="250.6" width="15.5818" height="7.79092" rx="2.59697" fill="#DBEAFD"/>
<mask id="path-31-inside-9_7807_68732" fill="white">
<path d="M139.619 267.479H347.377V294.747H139.619V267.479Z"/>
</mask>
<path d="M139.619 267.479V266.18H138.321V267.479H139.619ZM347.377 267.479H348.676V266.18H347.377V267.479ZM139.619 267.479V268.777H347.377V267.479V266.18H139.619V267.479ZM347.377 267.479H346.079V294.747H347.377H348.676V267.479H347.377ZM139.619 294.747H140.918V267.479H139.619H138.321V294.747H139.619Z" fill="#DBEAFD" mask="url(#path-31-inside-9_7807_68732)"/>
<g opacity="0.5">
<rect x="145.214" y="273.073" width="15.2825" height="15.2825" rx="1.20651" fill="white"/>
<rect x="145.214" y="273.073" width="15.2825" height="15.2825" rx="1.20651" stroke="#DBEAFD" stroke-width="0.804341"/>
</g>
<rect x="179.87" y="276.566" width="114.267" height="7.79092" rx="2.59697" fill="#D6E7FD"/>
<mask id="path-35-inside-10_7807_68732" fill="white">
<path d="M347.377 267.479H390.227V294.747H347.377V267.479Z"/>
</mask>
<path d="M390.227 267.479H391.526V266.18H390.227V267.479ZM347.377 267.479V268.777H390.227V267.479V266.18H347.377V267.479ZM390.227 267.479H388.929V294.747H390.227H391.526V267.479H390.227Z" fill="#DBEAFD" mask="url(#path-35-inside-10_7807_68732)"/>
<path opacity="0.5" d="M367.283 274.728C367.578 274.13 368.43 274.13 368.725 274.728L370.063 277.437C370.18 277.675 370.406 277.839 370.668 277.877L373.659 278.312C374.318 278.408 374.582 279.218 374.104 279.684L371.941 281.793C371.751 281.978 371.664 282.244 371.709 282.505L372.22 285.483C372.333 286.14 371.643 286.641 371.053 286.331L368.378 284.925C368.144 284.802 367.864 284.802 367.63 284.925L364.955 286.331C364.365 286.641 363.676 286.14 363.788 285.483L364.299 282.505C364.344 282.244 364.257 281.978 364.068 281.793L361.904 279.684C361.427 279.218 361.69 278.408 362.35 278.312L365.34 277.877C365.602 277.839 365.828 277.675 365.946 277.437L367.283 274.728Z" fill="#DBEAFD"/>
<mask id="path-38-inside-11_7807_68732" fill="white">
<path d="M390.228 267.479H510.987V294.747H390.228V267.479Z"/>
</mask>
<path d="M510.987 267.479H512.285V266.18H510.987V267.479ZM390.228 267.479V268.777H510.987V267.479V266.18H390.228V267.479ZM510.987 267.479H509.688V294.747H510.987H512.285V267.479H510.987Z" fill="#DBEAFD" mask="url(#path-38-inside-11_7807_68732)"/>
<mask id="path-40-inside-12_7807_68732" fill="white">
<path d="M510.986 267.479H548.642V294.747H510.986V267.479Z"/>
</mask>
<path d="M548.642 267.479H549.941V266.18H548.642V267.479ZM510.986 267.479V268.777H548.642V267.479V266.18H510.986V267.479ZM548.642 267.479H547.344V294.747H548.642H549.941V267.479H548.642Z" fill="#DBEAFD" mask="url(#path-40-inside-12_7807_68732)"/>
<rect x="520.075" y="277.865" width="15.5818" height="7.79092" rx="2.59697" fill="#DBEAFD"/>
<mask id="path-43-inside-13_7807_68732" fill="white">
<path d="M139.619 294.747H347.377V322.015H139.619V294.747Z"/>
</mask>
<path d="M139.619 294.747V293.449H138.321V294.747H139.619ZM347.377 294.747H348.676V293.449H347.377V294.747ZM139.619 294.747V296.046H347.377V294.747V293.449H139.619V294.747ZM347.377 294.747H346.079V322.015H347.377H348.676V294.747H347.377ZM139.619 322.015H140.918V294.747H139.619H138.321V322.015H139.619Z" fill="#DBEAFD" mask="url(#path-43-inside-13_7807_68732)"/>
<path d="M146.42 300.341H159.29C159.956 300.341 160.496 300.881 160.496 301.547V314.417C160.496 315.083 159.956 315.623 159.29 315.623H146.42C145.754 315.623 145.214 315.083 145.214 314.417V301.547C145.214 300.881 145.754 300.341 146.42 300.341Z" fill="#0964AE"/>
<path d="M146.42 300.341H159.29C159.956 300.341 160.496 300.881 160.496 301.547V314.417C160.496 315.083 159.956 315.623 159.29 315.623H146.42C145.754 315.623 145.214 315.083 145.214 314.417V301.547C145.214 300.881 145.754 300.341 146.42 300.341Z" stroke="#0964AE" stroke-width="0.804341"/>
<path fill-rule="evenodd" clip-rule="evenodd" d="M156.802 304.949C157.097 305.219 157.117 305.677 156.847 305.971L152.43 310.798C152.29 310.95 152.092 311.036 151.885 311.033C151.678 311.029 151.482 310.938 151.347 310.781L149.009 308.067C148.748 307.764 148.782 307.307 149.084 307.046C149.387 306.785 149.844 306.819 150.105 307.122L151.912 309.219L155.779 304.994C156.049 304.699 156.507 304.679 156.802 304.949Z" fill="white"/>
<rect x="179.87" y="303.834" width="63.6259" height="7.79092" rx="2.59697" fill="#D6E7FD"/>
<mask id="path-48-inside-14_7807_68732" fill="white">
<path d="M347.377 294.747H390.227V322.015H347.377V294.747Z"/>
</mask>
<path d="M390.227 294.747H391.526V293.449H390.227V294.747ZM347.377 294.747V296.046H390.227V294.747V293.449H347.377V294.747ZM390.227 294.747H388.929V322.015H390.227H391.526V294.747H390.227Z" fill="#DBEAFD" mask="url(#path-48-inside-14_7807_68732)"/>
<path opacity="0.5" d="M367.283 301.994C367.578 301.396 368.43 301.396 368.725 301.994L370.063 304.704C370.18 304.941 370.406 305.106 370.668 305.144L373.659 305.578C374.318 305.674 374.582 306.485 374.104 306.95L371.941 309.059C371.751 309.244 371.664 309.511 371.709 309.771L372.22 312.75C372.333 313.407 371.643 313.908 371.053 313.598L368.378 312.191C368.144 312.068 367.864 312.068 367.63 312.191L364.955 313.598C364.365 313.908 363.676 313.407 363.788 312.75L364.299 309.771C364.344 309.511 364.257 309.244 364.068 309.059L361.904 306.95C361.427 306.485 361.69 305.674 362.35 305.578L365.34 305.144C365.602 305.106 365.828 304.941 365.946 304.704L367.283 301.994Z" fill="#DBEAFD"/>
<mask id="path-51-inside-15_7807_68732" fill="white">
<path d="M390.228 294.747H510.987V322.015H390.228V294.747Z"/>
</mask>
<path d="M510.987 294.747H512.285V293.449H510.987V294.747ZM390.228 294.747V296.046H510.987V294.747V293.449H390.228V294.747ZM510.987 294.747H509.688V322.015H510.987H512.285V294.747H510.987Z" fill="#DBEAFD" mask="url(#path-51-inside-15_7807_68732)"/>
<circle cx="407.108" cy="309.029" r="7.14168" fill="#DBEAFD" stroke="#598FDF" stroke-width="1.29849"/>
<path d="M413.6 309.029C413.6 310.845 412.854 312.487 411.652 313.666C411.546 313.769 411.437 313.869 411.324 313.966C411.118 314.142 410.9 314.306 410.672 314.456C409.649 315.129 408.424 315.521 407.108 315.521C405.791 315.521 404.566 315.129 403.543 314.456C403.315 314.306 403.098 314.142 402.891 313.966C402.779 313.869 402.669 313.769 402.564 313.666C401.361 312.487 400.615 310.845 400.615 309.029C400.615 305.443 403.522 302.536 407.108 302.536C410.693 302.536 413.6 305.443 413.6 309.029Z" fill="#D5E6FD"/>
<path d="M411.651 313.665C411.546 313.769 411.436 313.869 411.324 313.965C411.117 314.142 410.9 314.306 410.672 314.456C409.649 315.129 408.424 315.521 407.107 315.521C405.791 315.521 404.566 315.129 403.543 314.456C403.315 314.306 403.098 314.142 402.891 313.965C402.779 313.869 402.669 313.769 402.563 313.665C402.823 312.929 403.415 312.335 404.189 312.091L406.131 311.478V311.158C405.889 311.015 405.67 310.851 405.49 310.728C405.156 310.503 404.934 310.15 404.867 309.753L404.764 309.134C404.439 309.134 404.178 308.872 404.178 308.548V307.181C404.178 306.372 404.506 305.64 405.035 305.108C405.566 304.579 406.297 304.251 407.107 304.251C408.725 304.251 410.037 305.564 410.037 307.181V308.548C410.037 308.872 409.776 309.134 409.451 309.134L409.348 309.753C409.281 310.15 409.057 310.503 408.723 310.728C408.543 310.849 408.328 311.015 408.084 311.158V311.478L410.024 312.091C410.799 312.335 411.392 312.929 411.651 313.665Z" fill="#B7D4FB"/>
<rect x="420.093" y="305.134" width="70.1183" height="7.79092" rx="2.59697" fill="#D6E7FD"/>
<mask id="path-57-inside-16_7807_68732" fill="white">
<path d="M510.986 294.747H548.642V322.015H510.986V294.747Z"/>
</mask>
<path d="M548.642 294.747H549.941V293.449H548.642V294.747ZM510.986 294.747V296.046H548.642V294.747V293.449H510.986V294.747ZM548.642 294.747H547.344V322.015H548.642H549.941V294.747H548.642Z" fill="#DBEAFD" mask="url(#path-57-inside-16_7807_68732)"/>
<rect x="520.075" y="305.134" width="15.5818" height="7.79092" rx="2.59697" fill="#DBEAFD"/>
<mask id="path-60-inside-17_7807_68732" fill="white">
<path d="M139.619 322.016H347.377V349.284H139.619V322.016Z"/>
</mask>
<path d="M139.619 322.016V320.717H138.321V322.016H139.619ZM347.377 322.016H348.676V320.717H347.377V322.016ZM139.619 322.016V323.314H347.377V322.016V320.717H139.619V322.016ZM347.377 322.016H346.079V349.284H347.377H348.676V322.016H347.377ZM139.619 349.284H140.918V322.016H139.619H138.321V349.284H139.619Z" fill="#DBEAFD" mask="url(#path-60-inside-17_7807_68732)"/>
<g opacity="0.5">
<rect x="145.214" y="327.61" width="15.2825" height="15.2825" rx="1.20651" fill="white"/>
<rect x="145.214" y="327.61" width="15.2825" height="15.2825" rx="1.20651" stroke="#DBEAFD" stroke-width="0.804341"/>
</g>
<rect x="179.87" y="331.104" width="114.267" height="7.79092" rx="2.59697" fill="#D6E7FD"/>
<mask id="path-64-inside-18_7807_68732" fill="white">
<path d="M347.377 322.016H390.227V349.284H347.377V322.016Z"/>
</mask>
<path d="M390.227 322.016H391.526V320.717H390.227V322.016ZM347.377 322.016V323.314H390.227V322.016V320.717H347.377V322.016ZM390.227 322.016H388.929V349.284H390.227H391.526V322.016H390.227Z" fill="#DBEAFD" mask="url(#path-64-inside-18_7807_68732)"/>
<path d="M367.283 329.265C367.578 328.667 368.43 328.667 368.725 329.265L370.063 331.974C370.18 332.212 370.406 332.376 370.668 332.414L373.659 332.849C374.318 332.945 374.582 333.756 374.104 334.221L371.941 336.33C371.751 336.515 371.664 336.781 371.709 337.042L372.22 340.02C372.333 340.677 371.643 341.178 371.053 340.868L368.378 339.462C368.144 339.339 367.864 339.339 367.63 339.462L364.955 340.868C364.365 341.178 363.676 340.677 363.788 340.02L364.299 337.042C364.344 336.781 364.257 336.515 364.068 336.33L361.904 334.221C361.427 333.756 361.69 332.945 362.35 332.849L365.34 332.414C365.602 332.376 365.828 332.212 365.946 331.974L367.283 329.265Z" fill="#99C1FA"/>
<mask id="path-67-inside-19_7807_68732" fill="white">
<path d="M390.228 322.016H510.987V349.284H390.228V322.016Z"/>
</mask>
<path d="M510.987 322.016H512.285V320.717H510.987V322.016ZM390.228 322.016V323.314H510.987V322.016V320.717H390.228V322.016ZM510.987 322.016H509.688V349.284H510.987H512.285V322.016H510.987Z" fill="#DBEAFD" mask="url(#path-67-inside-19_7807_68732)"/>
<circle cx="407.108" cy="336.301" r="7.14168" fill="#DBEAFD" stroke="#588CD6" stroke-width="1.29849"/>
<path d="M413.6 336.299C413.6 338.116 412.854 339.758 411.652 340.936C411.546 341.04 411.437 341.14 411.324 341.236C411.279 341.274 411.234 341.312 411.188 341.349C411.022 341.483 410.85 341.609 410.672 341.726C409.649 342.4 408.424 342.792 407.108 342.792C405.791 342.792 404.566 342.4 403.543 341.726C403.365 341.609 403.193 341.483 403.028 341.349C402.982 341.312 402.936 341.274 402.891 341.236C402.779 341.14 402.669 341.04 402.564 340.936C401.361 339.758 400.615 338.116 400.615 336.299C400.615 332.713 403.522 329.807 407.108 329.807C410.693 329.807 413.6 332.713 413.6 336.299Z" fill="#D5E6FD"/>
<path d="M411.187 341.351C411.022 341.485 410.85 341.611 410.672 341.728C409.649 342.402 408.424 342.794 407.107 342.794C405.791 342.794 404.566 342.402 403.543 341.728C403.365 341.611 403.193 341.485 403.027 341.351C403.137 340.517 403.655 339.788 404.408 339.415C403.986 339.26 403.681 339.004 403.496 338.811C403.371 338.682 403.363 338.483 403.475 338.342C403.787 337.952 404.367 337.196 404.373 335.457V334.453C404.373 332.971 405.615 331.719 407.108 331.719C408.6 331.719 409.842 332.971 409.842 334.453V335.43C409.842 337.188 410.426 337.95 410.741 338.342C410.852 338.483 410.844 338.682 410.719 338.811C410.533 339.004 410.227 339.26 409.805 339.415C410.56 339.788 411.078 340.517 411.188 341.351H411.187Z" fill="#B7D4FB"/>
<rect x="420.093" y="332.405" width="44.1486" height="7.79092" rx="2.59697" fill="#D6E7FD"/>
<mask id="path-73-inside-20_7807_68732" fill="white">
<path d="M510.986 322.016H548.642V349.284H510.986V322.016Z"/>
</mask>
<path d="M548.642 322.016H549.941V320.717H548.642V322.016ZM510.986 322.016V323.314H548.642V322.016V320.717H510.986V322.016ZM548.642 322.016H547.344V349.284H548.642H549.941V322.016H548.642Z" fill="#DBEAFD" mask="url(#path-73-inside-20_7807_68732)"/>
<rect x="520.075" y="332.404" width="15.5818" height="7.79092" rx="2.59697" fill="#DBEAFD"/>
<mask id="path-76-inside-21_7807_68732" fill="white">
<path d="M139.619 349.283H347.377V376.551H139.619V349.283Z"/>
</mask>
<path d="M139.619 349.283V347.985H138.321V349.283H139.619ZM347.377 349.283H348.676V347.985H347.377V349.283ZM139.619 349.283V350.582H347.377V349.283V347.985H139.619V349.283ZM347.377 349.283H346.079V376.551H347.377H348.676V349.283H347.377ZM139.619 376.551H140.918V349.283H139.619H138.321V376.551H139.619Z" fill="#DBEAFD" mask="url(#path-76-inside-21_7807_68732)"/>
<rect x="145.214" y="354.88" width="15.2825" height="15.2825" rx="1.20651" fill="white"/>
<rect x="145.214" y="354.88" width="15.2825" height="15.2825" rx="1.20651" stroke="#CCD0D1" stroke-width="0.804341"/>
<rect x="179.87" y="358.373" width="114.267" height="7.79092" rx="2.59697" fill="#D6E7FD"/>
<mask id="path-80-inside-22_7807_68732" fill="white">
<path d="M347.377 349.283H390.227V376.551H347.377V349.283Z"/>
</mask>
<path d="M390.227 349.283H391.526V347.985H390.227V349.283ZM347.377 349.283V350.582H390.227V349.283V347.985H347.377V349.283ZM390.227 349.283H388.929V376.551H390.227H391.526V349.283H390.227Z" fill="#DBEAFD" mask="url(#path-80-inside-22_7807_68732)"/>
<path opacity="0.5" d="M367.283 356.533C367.578 355.936 368.43 355.936 368.725 356.533L370.063 359.243C370.18 359.48 370.406 359.645 370.668 359.683L373.659 360.117C374.318 360.213 374.582 361.024 374.104 361.489L371.941 363.599C371.751 363.783 371.664 364.05 371.709 364.311L372.22 367.289C372.333 367.946 371.643 368.447 371.053 368.137L368.378 366.73C368.144 366.607 367.864 366.607 367.63 366.73L364.955 368.137C364.365 368.447 363.676 367.946 363.788 367.289L364.299 364.311C364.344 364.05 364.257 363.783 364.068 363.599L361.904 361.489C361.427 361.024 361.69 360.213 362.35 360.117L365.34 359.683C365.602 359.645 365.828 359.48 365.946 359.243L367.283 356.533Z" fill="#DBEAFD"/>
<mask id="path-83-inside-23_7807_68732" fill="white">
<path d="M390.228 349.283H510.987V376.551H390.228V349.283Z"/>
</mask>
<path d="M510.987 349.283H512.285V347.985H510.987V349.283ZM390.228 349.283V350.582H510.987V349.283V347.985H390.228V349.283ZM510.987 349.283H509.688V376.551H510.987H512.285V349.283H510.987Z" fill="#DBEAFD" mask="url(#path-83-inside-23_7807_68732)"/>
<circle cx="407.108" cy="363.566" r="7.14168" fill="#DBEAFD" stroke="#598FDF" stroke-width="1.29849"/>
<path d="M413.6 363.564C413.6 365.38 412.854 367.023 411.652 368.201C411.546 368.304 411.437 368.404 411.324 368.501C411.279 368.539 411.234 368.577 411.188 368.614C411.022 368.748 410.85 368.874 410.672 368.991C409.649 369.664 408.424 370.056 407.108 370.056C405.791 370.056 404.566 369.664 403.543 368.991C403.365 368.874 403.193 368.748 403.028 368.614C402.982 368.577 402.936 368.539 402.891 368.501C402.779 368.404 402.669 368.304 402.564 368.201C401.361 367.023 400.615 365.38 400.615 363.564C400.615 359.978 403.522 357.071 407.108 357.071C410.693 357.071 413.6 359.978 413.6 363.564Z" fill="#D5E6FD"/>
<path d="M411.187 368.617C411.022 368.751 410.85 368.877 410.672 368.994C409.649 369.667 408.424 370.059 407.107 370.059C405.791 370.059 404.566 369.667 403.543 368.994C403.365 368.877 403.193 368.751 403.027 368.617C403.137 367.783 403.655 367.054 404.408 366.68C403.986 366.526 403.681 366.27 403.496 366.077C403.371 365.948 403.363 365.749 403.475 365.608C403.787 365.217 404.367 364.461 404.373 362.723V361.719C404.373 360.237 405.615 358.984 407.108 358.984C408.6 358.984 409.842 360.237 409.842 361.719V362.696C409.842 364.454 410.426 365.215 410.741 365.608C410.852 365.749 410.844 365.948 410.719 366.077C410.533 366.27 410.227 366.526 409.805 366.68C410.56 367.053 411.078 367.783 411.188 368.617H411.187Z" fill="#B7D4FB"/>
<rect x="420.093" y="359.671" width="44.1486" height="7.79092" rx="2.59697" fill="#D6E7FD"/>
<mask id="path-89-inside-24_7807_68732" fill="white">
<path d="M510.986 349.283H548.642V376.551H510.986V349.283Z"/>
</mask>
<path d="M548.642 349.283H549.941V347.985H548.642V349.283ZM510.986 349.283V350.582H548.642V349.283V347.985H510.986V349.283ZM548.642 349.283H547.344V376.551H548.642H549.941V349.283H548.642Z" fill="#DBEAFD" mask="url(#path-89-inside-24_7807_68732)"/>
<rect x="520.075" y="359.671" width="15.5818" height="7.79092" rx="2.59697" fill="#DBEAFD"/>
<mask id="path-92-inside-25_7807_68732" fill="white">
<path d="M139.619 376.552H347.377V403.82H139.619V376.552Z"/>
</mask>
<path d="M139.619 376.552V375.253H138.321V376.552H139.619ZM347.377 376.552H348.676V375.253H347.377V376.552ZM347.377 403.82V405.118H348.676V403.82H347.377ZM139.619 403.82H138.321V405.118H139.619V403.82ZM139.619 376.552V377.85H347.377V376.552V375.253H139.619V376.552ZM347.377 376.552H346.079V403.82H347.377H348.676V376.552H347.377ZM347.377 403.82V402.522H139.619V403.82V405.118H347.377V403.82ZM139.619 403.82H140.918V376.552H139.619H138.321V403.82H139.619Z" fill="#DBEAFD" mask="url(#path-92-inside-25_7807_68732)"/>
<rect x="145.214" y="382.148" width="15.2825" height="15.2825" rx="1.20651" fill="white"/>
<rect x="145.214" y="382.148" width="15.2825" height="15.2825" rx="1.20651" stroke="#CCD0D1" stroke-width="0.804341"/>
<rect x="179.87" y="385.642" width="114.267" height="7.79092" rx="2.59697" fill="#D6E7FD"/>
<mask id="path-96-inside-26_7807_68732" fill="white">
<path d="M347.377 376.552H390.227V403.82H347.377V376.552Z"/>
</mask>
<path d="M390.227 376.552H391.526V375.253H390.227V376.552ZM390.227 403.82V405.118H391.526V403.82H390.227ZM347.377 376.552V377.85H390.227V376.552V375.253H347.377V376.552ZM390.227 376.552H388.929V403.82H390.227H391.526V376.552H390.227ZM390.227 403.82V402.522H347.377V403.82V405.118H390.227V403.82Z" fill="#DBEAFD" mask="url(#path-96-inside-26_7807_68732)"/>
<path opacity="0.5" d="M367.283 383.802C367.578 383.204 368.43 383.204 368.725 383.802L370.063 386.511C370.18 386.749 370.406 386.913 370.668 386.952L373.659 387.386C374.318 387.482 374.582 388.293 374.104 388.758L371.941 390.867C371.751 391.052 371.664 391.318 371.709 391.579L372.22 394.557C372.333 395.214 371.643 395.715 371.053 395.405L368.378 393.999C368.144 393.876 367.864 393.876 367.63 393.999L364.955 395.405C364.365 395.715 363.676 395.214 363.788 394.557L364.299 391.579C364.344 391.318 364.257 391.052 364.068 390.867L361.904 388.758C361.427 388.293 361.69 387.482 362.35 387.386L365.34 386.952C365.602 386.913 365.828 386.749 365.946 386.511L367.283 383.802Z" fill="#DBEAFD"/>
<mask id="path-99-inside-27_7807_68732" fill="white">
<path d="M390.228 376.552H510.987V403.82H390.228V376.552Z"/>
</mask>
<path d="M510.987 376.552H512.285V375.253H510.987V376.552ZM510.987 403.82V405.118H512.285V403.82H510.987ZM390.228 376.552V377.85H510.987V376.552V375.253H390.228V376.552ZM510.987 376.552H509.688V403.82H510.987H512.285V376.552H510.987ZM510.987 403.82V402.522H390.228V403.82V405.118H510.987V403.82Z" fill="#DBEAFD" mask="url(#path-99-inside-27_7807_68732)"/>
<mask id="path-101-inside-28_7807_68732" fill="white">
<path d="M510.986 376.552H548.642V403.82H510.986V376.552Z"/>
</mask>
<path d="M548.642 376.552H549.941V375.253H548.642V376.552ZM548.642 403.82V405.118H549.941V403.82H548.642ZM510.986 376.552V377.85H548.642V376.552V375.253H510.986V376.552ZM548.642 376.552H547.344V403.82H548.642H549.941V376.552H548.642ZM548.642 403.82V402.522H510.986V403.82V405.118H548.642V403.82Z" fill="#DBEAFD" mask="url(#path-101-inside-28_7807_68732)"/>
<rect x="520.075" y="386.939" width="15.5818" height="7.79092" rx="2.59697" fill="#DBEAFD"/>
<rect x="139.619" y="172.688" width="110.371" height="9.08941" rx="2.16415" fill="#D6E7FD"/>
<path d="M532.574 189.496C570.037 178.824 597.85 158.887 596.251 144.503C596.251 144.503 523.909 171.04 516.266 178.832C508.622 186.623 513.642 186.607 513.642 186.607L532.572 189.511L532.574 189.496Z" fill="#467BCB"/>
<path d="M600.881 148.468C584.41 175.46 526.579 177.22 526.579 177.22C526.579 177.22 515.465 196.463 513.811 200.581C512.157 204.7 513.833 233.958 502.231 234.238L501.235 198.904L504.857 185.337L495.297 200.808C495.297 200.808 492.349 245.036 474.593 243.602L483.638 184.645C483.638 184.645 497.082 162.315 509.601 152.676C522.12 143.037 567.033 144.801 580.137 128.064C593.227 111.326 600.883 148.452 600.883 148.452L600.881 148.468Z" fill="#6BA2F1"/>
<path d="M492.372 216.221L533.129 189.017L526.291 176.892L511.306 180.453L496.132 191.713L490.494 208.368L492.372 216.221Z" fill="#467BCB"/>
<g filter="url(#filter0_d_7807_68732)">
<rect width="373.964" height="27.2682" transform="translate(257.548 194.404) rotate(-2.32179)" fill="white"/>
<mask id="path-108-inside-29_7807_68732" fill="white">
<path d="M257.548 194.404L465.135 185.988L466.24 213.233L258.653 221.65L257.548 194.404Z"/>
</mask>
<path d="M257.548 194.404L257.495 193.107L256.198 193.159L256.25 194.457L257.548 194.404ZM465.135 185.988L466.433 185.935L466.38 184.638L465.083 184.69L465.135 185.988ZM466.24 213.233L466.287 214.406L467.585 214.353L467.537 213.181L466.24 213.233ZM258.653 221.65L257.355 221.703L257.403 222.875L258.7 222.823L258.653 221.65ZM257.548 194.404L257.6 195.702L465.188 187.285L465.135 185.988L465.083 184.69L257.495 193.107L257.548 194.404ZM465.135 185.988L463.838 186.04L464.943 213.286L466.24 213.233L467.537 213.181L466.433 185.935L465.135 185.988ZM466.24 213.233L466.192 212.061L258.605 220.478L258.653 221.65L258.7 222.823L466.287 214.406L466.24 213.233ZM258.653 221.65L259.95 221.598L258.845 194.352L257.548 194.404L256.25 194.457L257.355 221.703L258.653 221.65Z" fill="#DBEAFD" mask="url(#path-108-inside-29_7807_68732)"/>
<path d="M264.571 199.723L277.43 199.201C278.096 199.174 278.657 199.692 278.684 200.357L279.206 213.217C279.232 213.882 278.715 214.444 278.049 214.471L265.19 214.992C264.524 215.019 263.963 214.502 263.936 213.836L263.414 200.977C263.388 200.311 263.905 199.75 264.571 199.723Z" fill="#0964AE"/>
<path d="M264.571 199.723L277.43 199.201C278.096 199.174 278.657 199.692 278.684 200.357L279.206 213.217C279.232 213.882 278.715 214.444 278.049 214.471L265.19 214.992C264.524 215.019 263.963 214.502 263.936 213.836L263.414 200.977C263.388 200.311 263.905 199.75 264.571 199.723Z" stroke="#0964AE" stroke-width="0.804341"/>
<path fill-rule="evenodd" clip-rule="evenodd" d="M275.13 203.917C275.436 204.175 275.475 204.631 275.217 204.937L270.998 209.938C270.865 210.096 270.67 210.19 270.464 210.195C270.257 210.2 270.058 210.117 269.916 209.965L267.47 207.348C267.197 207.056 267.212 206.598 267.504 206.325C267.796 206.052 268.254 206.067 268.527 206.359L270.417 208.381L274.11 204.003C274.368 203.698 274.825 203.659 275.13 203.917Z" fill="white"/>
<rect x="298.137" y="201.855" width="63.6259" height="7.79092" rx="2.59697" transform="rotate(-2.32179 298.137 201.855)" fill="#D6E7FD"/>
<mask id="path-113-inside-30_7807_68732" fill="white">
<path d="M465.136 185.987L507.951 184.251L509.055 211.497L466.24 213.233L465.136 185.987Z"/>
</mask>
<path d="M507.951 184.251L509.248 184.199L509.195 182.901L507.898 182.954L507.951 184.251ZM509.055 211.497L509.103 212.67L510.4 212.617L510.353 211.445L509.055 211.497ZM465.136 185.987L465.188 187.285L508.003 185.549L507.951 184.251L507.898 182.954L465.083 184.69L465.136 185.987ZM507.951 184.251L506.653 184.304L507.758 211.55L509.055 211.497L510.353 211.445L509.248 184.199L507.951 184.251ZM509.055 211.497L509.008 210.325L466.193 212.061L466.24 213.233L466.288 214.406L509.103 212.67L509.055 211.497Z" fill="#DBEAFD" mask="url(#path-113-inside-30_7807_68732)"/>
<path d="M485.318 192.42C485.588 191.811 486.44 191.777 486.759 192.362L488.205 195.015C488.332 195.248 488.565 195.403 488.828 195.43L491.834 195.743C492.497 195.812 492.793 196.612 492.335 197.096L490.258 199.291C490.076 199.483 490 199.753 490.056 200.012L490.687 202.967C490.826 203.619 490.157 204.147 489.555 203.861L486.826 202.565C486.587 202.451 486.307 202.463 486.078 202.595L483.462 204.108C482.885 204.442 482.176 203.97 482.262 203.308L482.652 200.312C482.686 200.05 482.588 199.787 482.392 199.61L480.144 197.59C479.648 197.145 479.879 196.324 480.534 196.201L483.504 195.646C483.764 195.598 483.984 195.424 484.091 195.182L485.318 192.42Z" fill="#99C1FA"/>
<mask id="path-116-inside-31_7807_68732" fill="white">
<path d="M507.95 184.252L593.58 180.78L594.685 208.026L509.055 211.498L507.95 184.252Z"/>
</mask>
<path d="M593.58 180.78L594.877 180.727L594.825 179.43L593.527 179.483L593.58 180.78ZM594.685 208.026L594.732 209.198L596.03 209.146L595.982 207.973L594.685 208.026ZM507.95 184.252L508.003 185.549L593.633 182.078L593.58 180.78L593.527 179.483L507.898 182.955L507.95 184.252ZM593.58 180.78L592.283 180.833L593.387 208.079L594.685 208.026L595.982 207.973L594.877 180.727L593.58 180.78ZM594.685 208.026L594.637 206.853L509.007 210.325L509.055 211.498L509.102 212.67L594.732 209.198L594.685 208.026Z" fill="#DBEAFD" mask="url(#path-116-inside-31_7807_68732)"/>
<mask id="path-118-inside-32_7807_68732" fill="white">
<path d="M593.58 180.78L631.205 179.255L632.31 206.501L594.685 208.026L593.58 180.78Z"/>
</mask>
<path d="M631.205 179.255L632.503 179.202L632.45 177.905L631.153 177.957L631.205 179.255ZM632.31 206.501L632.358 207.673L633.655 207.621L633.607 206.448L632.31 206.501ZM593.58 180.78L593.633 182.078L631.258 180.552L631.205 179.255L631.153 177.957L593.527 179.483L593.58 180.78ZM631.205 179.255L629.908 179.307L631.013 206.553L632.31 206.501L633.607 206.448L632.503 179.202L631.205 179.255ZM632.31 206.501L632.262 205.328L594.637 206.854L594.685 208.026L594.732 209.199L632.358 207.673L632.31 206.501Z" fill="#DBEAFD" mask="url(#path-118-inside-32_7807_68732)"/>
<rect x="603.083" y="190.792" width="15.5818" height="7.79092" rx="2.59697" transform="rotate(-2.32179 603.083 190.792)" fill="#D6E7FD"/>
</g>
<path d="M658.045 85.4133L620.855 139.589C620.855 139.589 625.258 172.847 602.771 189.226C580.285 205.605 560.478 210.796 547.543 220.7C534.608 230.603 533.622 226.945 538.454 217.271C543.285 207.596 559.749 189.306 559.749 189.306C559.749 189.306 566.495 175.699 558.725 174.264C550.956 172.829 512.825 174.699 512.825 174.699C512.825 174.699 567.416 152.814 583.137 117.542C598.857 82.2848 596.972 76.044 596.972 76.044L658.045 85.4133Z" fill="#6BA2F1"/>
<path d="M652.753 94.8985L590.554 85.3565L592.899 74.5815L661.659 85.1301L652.753 94.8985Z" fill="#94BFFA"/>
<path d="M116.95 414.996C116.95 414.996 129.116 410.757 135.333 402.622L139.731 427.577L151.36 423.143L154.768 404.405L158.274 424.316L181.079 423.192L169.304 382.332L157.37 363.875C157.37 363.875 130.069 368.321 127.125 369.201C124.193 370.08 107.642 398.957 107.642 398.957L116.962 414.996L116.95 414.996Z" fill="#467BCB"/>
<path d="M165.99 364.521L208.694 385.387C208.694 385.387 151.722 386.188 142.606 382.839C142.606 382.839 133.69 402.746 125.218 408.37C125.218 408.37 117.862 430.953 105.597 434.889C93.3326 438.824 96.6528 384.127 96.6528 384.127L132.216 357.466L165.99 364.535L165.99 364.521Z" fill="#467BCB"/>
<path d="M169.352 431.974C170.122 444.959 160.728 454.695 157.54 453.742C154.34 452.789 158.126 436.983 157.577 431.022C157.027 425.061 169.352 431.974 169.352 431.974Z" fill="#467BCB"/>
<path d="M154.449 430.448C151.334 443.078 139.485 449.589 136.712 447.732C133.939 445.876 142.233 431.901 143.479 426.038C144.725 420.187 154.449 430.436 154.449 430.436L154.449 430.448Z" fill="#467BCB"/>
<g filter="url(#filter1_d_7807_68732)">
<mask id="path-127-inside-33_7807_68732" fill="white">
<path d="M141.832 361.092L214.599 378.991L203.209 425.297L130.442 407.398L141.832 361.092Z"/>
</mask>
<path d="M141.832 361.092L214.599 378.991L203.209 425.297L130.442 407.398L141.832 361.092Z" fill="white" shape-rendering="crispEdges"/>
<path d="M141.832 361.092L142.374 358.887L140.826 358.506L140.284 360.711L141.832 361.092ZM214.599 378.991L216.804 379.533L217.346 377.328L215.141 376.785L214.599 378.991ZM203.209 425.297L202.828 426.845L205.033 427.387L205.414 425.839L203.209 425.297ZM130.442 407.398L128.894 407.017L128.513 408.565L130.061 408.946L130.442 407.398ZM141.832 361.092L141.29 363.297L214.057 381.196L214.599 378.991L215.141 376.785L142.374 358.887L141.832 361.092ZM214.599 378.991L212.394 378.448L201.004 424.754L203.209 425.297L205.414 425.839L216.804 379.533L214.599 378.991ZM203.209 425.297L203.59 423.749L130.823 405.85L130.442 407.398L130.061 408.946L202.828 426.845L203.209 425.297ZM130.442 407.398L131.99 407.779L143.38 361.473L141.832 361.092L140.284 360.711L128.894 407.017L130.442 407.398Z" fill="#DBEAFD" mask="url(#path-127-inside-33_7807_68732)"/>
<path d="M172.606 381.719C173.357 380.827 174.805 381.184 175.056 382.322L176.195 387.482C176.295 387.934 176.611 388.308 177.04 388.482L181.936 390.469C183.016 390.907 183.125 392.394 182.12 392.985L177.565 395.663C177.165 395.898 176.907 396.314 176.874 396.775L176.498 402.046C176.415 403.209 175.034 403.772 174.162 402.999L170.207 399.494C169.861 399.187 169.385 399.07 168.936 399.181L163.807 400.452C162.675 400.732 161.713 399.593 162.179 398.524L164.291 393.68C164.476 393.256 164.44 392.767 164.195 392.374L161.402 387.889C160.785 386.899 161.571 385.633 162.732 385.745L167.991 386.256C168.452 386.301 168.905 386.116 169.203 385.762L172.606 381.719Z" fill="#99C1FA"/>
</g>
<path d="M44.9775 441.538C86.4797 410.929 92.3147 386.854 98.8028 374.383C99.4444 373.15 100.434 372.176 101.625 371.46C107.704 367.807 127.62 355.603 137.373 346.795C140.014 344.41 143.754 343.253 147.14 344.345C157.318 347.627 178.823 354.282 191.517 356.179C194.946 356.692 197.272 360.341 194.714 362.682C191.406 365.709 185.805 368.54 176.694 367.588C158.701 365.706 142.772 367.001 142.772 367.001C142.772 367.001 135.81 382.869 122.715 388.708C122.715 388.708 121.775 406.041 120.883 415.276C120.883 415.276 157.247 420.479 169.341 420.369C181.434 420.26 188.237 419.563 186.649 426.917C186.039 429.751 174.239 436.677 155.684 437.422C137.141 438.167 131.107 443.261 131.107 443.261C131.107 443.261 124.279 479.809 60.9795 484.389L44.9898 441.551L44.9775 441.538Z" fill="#6BA2F1"/>
<path d="M43.6462 433.952L68.8951 492.268L59.9291 495.614L35.9873 440.976L43.6462 433.952Z" fill="#94BFFA"/>
<rect x="535.753" y="458.21" width="72.5079" height="18.127" rx="5.03527" fill="#6BA2F1"/>
<path d="M525.704 467.465C525.704 472.309 523.716 476.688 520.512 479.829C520.23 480.106 519.939 480.372 519.639 480.629C519.519 480.731 519.399 480.832 519.276 480.931C518.836 481.288 518.377 481.624 517.903 481.936C515.176 483.732 511.912 484.777 508.404 484.777C504.896 484.777 501.632 483.732 498.906 481.936C498.431 481.624 497.973 481.288 497.532 480.931C497.41 480.832 497.289 480.731 497.17 480.629C496.87 480.372 496.578 480.105 496.296 479.829C493.093 476.688 491.104 472.309 491.104 467.465C491.104 457.904 498.85 450.153 508.404 450.153C517.959 450.153 525.704 457.904 525.704 467.465Z" fill="#D1E4FC"/>
<path d="M519.277 480.932C518.836 481.288 518.378 481.624 517.903 481.937C515.177 483.733 511.913 484.777 508.405 484.777C504.897 484.777 501.633 483.733 498.907 481.937C498.432 481.624 497.974 481.289 497.533 480.932C497.824 478.707 499.205 476.763 501.212 475.767C500.088 475.356 499.276 474.674 498.782 474.158C498.449 473.815 498.428 473.283 498.725 472.909C499.557 471.867 501.103 469.851 501.119 465.216V462.539C501.119 458.586 504.429 455.247 508.405 455.247C512.382 455.247 515.692 458.586 515.692 462.539V465.143C515.692 469.83 517.248 471.861 518.086 472.909C518.383 473.283 518.362 473.815 518.028 474.158C517.534 474.674 516.717 475.356 515.593 475.767C517.605 476.762 518.985 478.707 519.277 480.932H519.277Z" fill="#73A9F8"/>
<g opacity="0.6">
<path fill-rule="evenodd" clip-rule="evenodd" d="M58.25 130.31L49.4417 150.415C48.8158 151.843 49.4661 153.51 50.8942 154.136L74.4545 164.476C75.8826 165.103 77.5477 164.453 78.1736 163.024L85.8486 145.506C86.4745 144.077 85.8242 142.411 84.3961 141.784L58.25 130.31Z" fill="#9BBDEB"/>
<path fill-rule="evenodd" clip-rule="evenodd" d="M58.2496 130.31L73.3707 136.946L71.3807 131.847C71.0622 131.031 70.4324 130.375 69.6304 130.023L62.7761 127.015C61.3481 126.388 59.683 127.038 59.0572 128.466L58.2496 130.31Z" fill="#83AEEA"/>
</g>
<g opacity="0.6" clip-path="url(#clip0_7807_68732)">
<path fill-rule="evenodd" clip-rule="evenodd" d="M140.473 119.873C138.066 120.558 135.56 119.162 134.875 116.754L129.135 96.5761L129.878 80.1054C129.956 78.3871 131.124 76.9115 132.778 76.4409L158.154 69.2219C159.808 68.7513 161.578 69.3914 162.548 70.8114L171.85 84.4243L177.591 104.603C178.275 107.01 176.879 109.516 174.472 110.201L140.473 119.873Z" fill="#83AEEA"/>
<path d="M157.795 74.64L135.935 80.8587C134.888 81.1568 134.28 82.2479 134.578 83.2958L139.538 100.731C139.836 101.778 140.927 102.386 141.975 102.088L163.835 95.8695C164.883 95.5714 165.49 94.4802 165.192 93.4323L160.232 75.9976C159.934 74.9497 158.843 74.3418 157.795 74.64Z" fill="#D9DDE0"/>
<path d="M162.627 79.6574L134.47 87.6676C133.362 87.9828 132.719 89.1364 133.035 90.2442L139.377 112.541C139.693 113.649 140.846 114.291 141.954 113.976L170.111 105.966C171.219 105.651 171.862 104.497 171.547 103.389L165.204 81.0926C164.889 79.9848 163.735 79.3422 162.627 79.6574Z" fill="white"/>
<path fill-rule="evenodd" clip-rule="evenodd" d="M171.85 84.4235L129.135 96.5752L135.022 117.269C135.626 119.392 137.836 120.624 139.96 120.019L174.988 110.055C177.111 109.451 178.342 107.24 177.738 105.116L171.85 84.4235Z" fill="#9BBDEB"/>
</g>
<defs>
<filter id="filter0_d_7807_68732" x="247.477" y="173.212" width="394.903" height="62.5376" filterUnits="userSpaceOnUse" color-interpolation-filters="sRGB">
<feFlood flood-opacity="0" result="BackgroundImageFix"/>
<feColorMatrix in="SourceAlpha" type="matrix" values="0 0 0 0 0 0 0 0 0 0 0 0 0 0 0 0 0 0 127 0" result="hardAlpha"/>
<feOffset dy="4.02822"/>
<feGaussianBlur stdDeviation="5.03527"/>
<feComposite in2="hardAlpha" operator="out"/>
<feColorMatrix type="matrix" values="0 0 0 0 0 0 0 0 0 0 0 0 0 0 0 0 0 0 0.1 0"/>
<feBlend mode="normal" in2="BackgroundImageFix" result="effect1_dropShadow_7807_68732"/>
<feBlend mode="normal" in="SourceGraphic" in2="effect1_dropShadow_7807_68732" result="shape"/>
</filter>
<filter id="filter1_d_7807_68732" x="114.499" y="351.526" width="116.044" height="96.0927" filterUnits="userSpaceOnUse" color-interpolation-filters="sRGB">
<feFlood flood-opacity="0" result="BackgroundImageFix"/>
<feColorMatrix in="SourceAlpha" type="matrix" values="0 0 0 0 0 0 0 0 0 0 0 0 0 0 0 0 0 0 127 0" result="hardAlpha"/>
<feOffset dy="6.37753"/>
<feGaussianBlur stdDeviation="7.97191"/>
<feComposite in2="hardAlpha" operator="out"/>
<feColorMatrix type="matrix" values="0 0 0 0 0 0 0 0 0 0 0 0 0 0 0 0 0 0 0.1 0"/>
<feBlend mode="normal" in2="BackgroundImageFix" result="effect1_dropShadow_7807_68732"/>
<feBlend mode="normal" in="SourceGraphic" in2="effect1_dropShadow_7807_68732" result="shape"/>
</filter>
<clipPath id="clip0_7807_68732">
<rect width="54.381" height="54.381" fill="white" transform="translate(118.188 76.3096) rotate(-15.8801)"/>
</clipPath>
</defs>
</svg>
