<svg width="24" height="25" viewBox="0 0 24 25" fill="none" xmlns="http://www.w3.org/2000/svg">
<g clip-path="url(#clip0_6013_128808)">
<path d="M6 2.1335C6 1.13938 6.80589 0.333496 7.8 0.333496H16.2L24 8.1335V22.5335C24 23.5276 23.1941 24.3335 22.2 24.3335H7.8C6.80589 24.3335 6 23.5276 6 22.5335V2.1335Z" fill="url(#paint0_linear_6013_128808)"/>
<path d="M16.6031 8.1335H23.0374C23.3938 8.1335 23.5723 7.70264 23.3203 7.45065L16.886 1.01634C16.634 0.764353 16.2031 0.942819 16.2031 1.29918V7.7335C16.2031 7.95441 16.3822 8.1335 16.6031 8.1335Z" fill="#DCE2EB"/>
<path d="M6.9 2.1335C6.9 1.63644 7.30294 1.2335 7.8 1.2335H15.8272L23.1 8.50629V22.5335C23.1 23.0306 22.6971 23.4335 22.2 23.4335H7.8C7.30294 23.4335 6.9 23.0306 6.9 22.5335V2.1335Z" stroke="black" stroke-opacity="0.06" stroke-width="1.8"/>
</g>
<g clip-path="url(#clip1_6013_128808)">
<rect x="0.851562" y="12.5835" width="20.7" height="9.9" rx="1.8" fill="#FF1607"/>
<path d="M3.13219 21.0337V14.4882H5.71458C6.21103 14.4882 6.63397 14.5831 6.9834 14.7727C7.33283 14.9602 7.59917 15.2212 7.78241 15.5557C7.96778 15.8881 8.06046 16.2716 8.06046 16.7063C8.06046 17.1409 7.96671 17.5245 7.77921 17.8568C7.59171 18.1892 7.32005 18.4481 6.96422 18.6335C6.61053 18.8188 6.18226 18.9115 5.67942 18.9115H4.03347V17.8025H5.4557C5.72204 17.8025 5.9415 17.7567 6.11408 17.6651C6.2888 17.5713 6.41877 17.4424 6.504 17.2784C6.59136 17.1122 6.63503 16.9215 6.63503 16.7063C6.63503 16.4889 6.59136 16.2993 6.504 16.1374C6.41877 15.9733 6.2888 15.8465 6.11408 15.7571C5.93937 15.6654 5.71778 15.6196 5.44931 15.6196H4.51607V21.0337H3.13219ZM11.0997 21.0337H8.77934V14.4882H11.1188C11.7772 14.4882 12.344 14.6193 12.8191 14.8813C13.2943 15.1413 13.6597 15.5152 13.9154 16.0032C14.1732 16.4911 14.3021 17.0749 14.3021 17.7546C14.3021 18.4364 14.1732 19.0223 13.9154 19.5124C13.6597 20.0024 13.2921 20.3785 12.8127 20.6406C12.3354 20.9027 11.7644 21.0337 11.0997 21.0337ZM10.1632 19.848H11.0421C11.4512 19.848 11.7953 19.7755 12.0744 19.6306C12.3557 19.4836 12.5666 19.2567 12.7073 18.9499C12.85 18.6409 12.9214 18.2425 12.9214 17.7546C12.9214 17.2709 12.85 16.8757 12.7073 16.5688C12.5666 16.262 12.3568 16.0362 12.0776 15.8913C11.7985 15.7464 11.4544 15.674 11.0453 15.674H10.1632V19.848ZM15.1472 21.0337V14.4882H19.481V15.6292H16.5311V17.1889H19.1934V18.3299H16.5311V21.0337H15.1472Z" fill="white"/>
</g>
<defs>
<linearGradient id="paint0_linear_6013_128808" x1="15" y1="0.333496" x2="15" y2="24.3335" gradientUnits="userSpaceOnUse">
<stop stop-color="#F2F6FC"/>
<stop offset="1" stop-color="#EDF1F7"/>
</linearGradient>
<clipPath id="clip0_6013_128808">
<rect width="18" height="24" fill="white" transform="translate(6 0.333496)"/>
</clipPath>
<clipPath id="clip1_6013_128808">
<rect x="0.851562" y="12.5835" width="20.7" height="9.9" rx="1.8" fill="white"/>
</clipPath>
</defs>
</svg>
