<svg width="40" height="40" viewBox="0 0 40 40" fill="none" xmlns="http://www.w3.org/2000/svg">
<path d="M23.8442 16.2998L24.5649 15.5792L24.9107 15.2332C26.3117 13.8323 26.3117 11.561 24.9107 10.1601C23.5098 8.75915 21.2385 8.75915 19.8376 10.1601L10.9101 19.0875C10.8737 19.1239 10.8737 19.1829 10.9101 19.2193L15.4562 23.7654C15.7109 24.0201 16.1239 24.0201 16.3786 23.7654L18.7999 21.3441L19.5205 20.6235" stroke="#656565" stroke-width="1.5" stroke-linecap="round"/>
<path d="M23.2969 8.54622L24.4499 7.39323C25.3414 6.50174 26.7868 6.50174 27.6783 7.39323C28.5698 8.28472 28.5698 9.73012 27.6783 10.6216L26.5253 11.7746L23.2969 8.54622Z" stroke="#656565" stroke-width="1.5" stroke-linecap="round" stroke-linejoin="round"/>
<path d="M11.7672 20.0762L9 22.8433L12.2284 26.0717L14.9956 23.3045L11.7672 20.0762Z" stroke="#656565" stroke-width="1.5" stroke-linecap="round" stroke-linejoin="round"/>
<rect x="11.0781" y="31.7373" width="20.126" height="2.79528" rx="0.555556" stroke="#656565" stroke-width="1.5"/>
<path d="M25.1484 18.665C27.7574 18.665 30.3663 21.274 30.3663 25.1874C30.3663 28.2115 28.5975 30.2201 26.9202 31.6347" stroke="#656565" stroke-width="1.5" stroke-linecap="round" stroke-linejoin="round"/>
<path d="M19.8387 20.7701C20.9849 21.9163 22.8432 21.9163 23.9895 20.7701C25.1357 19.6239 25.1357 17.7655 23.9895 16.6193C22.8432 15.4731 20.9849 15.4731 19.8387 16.6193C18.6925 17.7655 18.6925 19.6239 19.8387 20.7701Z" stroke="#40A9FF" stroke-width="1.5"/>
</svg>
