<svg width="40" height="40" viewBox="0 0 40 40" fill="none" xmlns="http://www.w3.org/2000/svg">
<path d="M28.6774 29.0507L32.3333 29.0507C33.2538 29.0507 34 28.3045 34 27.384V13.9839C34 13.0634 33.2538 12.3172 32.3333 12.3172H27.6918M28.6774 29.0507V24.886C28.6774 23.9655 27.9312 23.2193 27.0108 23.2193H13.8342C12.9138 23.2193 12.1676 23.9655 12.1676 24.886V29.0507M28.6774 29.0507V32.7083C28.6774 33.6288 27.9312 34.375 27.0108 34.375H13.8342C12.9138 34.375 12.1676 33.6288 12.1676 32.7083V29.0507M12.1676 29.0507H8.16667C7.24619 29.0507 6.5 28.3045 6.5 27.384V13.9839C6.5 13.0634 7.24619 12.3172 8.16667 12.3172H12.1676M12.1676 12.3172V9.16667C12.1676 8.24619 12.9138 7.5 13.8342 7.5H26.0251C26.9456 7.5 27.6918 8.24619 27.6918 9.16667V12.3172M12.1676 12.3172H27.6918M15.371 28.8986H25.2276" stroke="#656565" stroke-width="1.5"/>
<path d="M15.3714 28.899H25.228M28.6778 29.0511V24.8864C28.6778 23.9659 27.9316 23.2197 27.0112 23.2197H13.8346C12.9142 23.2197 12.168 23.9659 12.168 24.8864V29.0511V32.7087C12.168 33.6292 12.9142 34.3754 13.8346 34.3754H27.0112C27.9316 34.3754 28.6778 33.6292 28.6778 32.7087V29.0511Z" stroke="#40A9FF" stroke-width="1.5"/>
</svg>
