<svg width="24" height="24" viewBox="0 0 24 24" fill="none" xmlns="http://www.w3.org/2000/svg">
<path d="M14.666 5.33203C15.0194 5.33212 15.3584 5.47279 15.6084 5.72266C15.8584 5.9727 15.999 6.31239 15.999 6.66602C15.9989 7.01952 15.8584 7.35843 15.6084 7.6084C15.3584 7.85837 15.0195 7.99894 14.666 7.99902C14.4892 7.99902 14.3194 8.06931 14.1943 8.19434C14.0693 8.31936 13.999 8.4892 13.999 8.66602V11.1719C13.9992 11.4198 14.0686 11.6633 14.1992 11.874C14.3299 12.0848 14.5171 12.2548 14.7393 12.3652L15.9258 12.9658C16.1479 13.0762 16.3351 13.2463 16.4658 13.457C16.5965 13.6678 16.6659 13.9112 16.666 14.1592V14.666C16.6659 14.8426 16.5954 15.0118 16.4707 15.1367C16.3457 15.2617 16.1758 15.332 15.999 15.332H12.749V18.665C12.749 19.0793 12.4132 19.415 11.999 19.415C11.5848 19.415 11.249 19.0793 11.249 18.665V15.332H7.99902C7.82221 15.332 7.65237 15.2617 7.52734 15.1367C7.4026 15.0118 7.33212 14.8426 7.33203 14.666V14.1592C7.33216 13.9112 7.40155 13.6678 7.53223 13.457C7.66293 13.2463 7.85018 13.0762 8.07227 12.9658L9.25879 12.3652C9.48093 12.2548 9.6681 12.0848 9.79883 11.874C9.92947 11.6633 9.99889 11.4198 9.99902 11.1719V8.66602C9.99902 8.4892 9.92874 8.31936 9.80371 8.19434C9.67869 8.06931 9.50884 7.99902 9.33203 7.99902C8.97853 7.99894 8.63962 7.85837 8.38965 7.6084C8.13968 7.35843 7.99911 7.01952 7.99902 6.66602C7.99902 6.31239 8.1396 5.9727 8.38965 5.72266C8.6396 5.47279 8.9786 5.33212 9.33203 5.33203H14.666Z" fill="#71717A"/>
</svg>
