<svg width="40" height="40" viewBox="0 0 40 40" fill="none" xmlns="http://www.w3.org/2000/svg">
<path d="M20 33.7508C22.5888 33.7508 24.6875 31.6987 24.6875 29.1674V27.6396H15.3125V29.1674C15.3125 31.6987 17.4112 33.7508 20 33.7508Z" stroke="#40A9FF" stroke-width="1.5" stroke-linecap="round" stroke-linejoin="round"/>
<path d="M7.5 27.6389H15.3125H24.6875H32.5L30.3048 25.4925C29.7095 24.9104 29.375 24.1209 29.375 23.2976V18.4722C29.375 14.481 26.7662 11.0856 23.125 9.82716V9.30556C23.125 7.61802 21.7259 6.25 20 6.25C18.2741 6.25 16.875 7.61802 16.875 9.30556V9.82716C13.2338 11.0856 10.625 14.481 10.625 18.4722V23.2976C10.625 24.1209 10.2905 24.9104 9.69521 25.4925L7.5 27.6389Z" stroke="#656565" stroke-width="1.5" stroke-linecap="round" stroke-linejoin="round"/>
</svg>
