<svg width="40" height="40" viewBox="0 0 40 40" fill="none" xmlns="http://www.w3.org/2000/svg">
<path d="M18.4367 8.19596C19.0762 6.93468 20.9238 6.93468 21.5633 8.19596L24.4617 13.9127C24.7157 14.4135 25.2065 14.7607 25.7744 14.841L32.2554 15.7577C33.6854 15.96 34.2563 17.6705 33.2216 18.6522L28.5319 23.1021C28.121 23.4919 27.9335 24.0536 28.0305 24.6041L29.1376 30.8874C29.3819 32.2737 27.8871 33.3308 26.6081 32.6763L20.8112 29.7097C20.3034 29.4498 19.6966 29.4498 19.1888 29.7097L13.3919 32.6763C12.1129 33.3308 10.6181 32.2737 10.8624 30.8874L11.9695 24.6041C12.0665 24.0536 11.879 23.4919 11.4681 23.1021L6.77837 18.6522C5.74367 17.6705 6.31463 15.96 7.74455 15.7577L14.2256 14.841C14.7935 14.7607 15.2843 14.4135 15.5383 13.9127L18.4367 8.19596Z" stroke="#656565" stroke-width="1.5" stroke-linecap="round" stroke-linejoin="round"/>
</svg>
