<svg width="40" height="40" viewBox="0 0 40 40" fill="none" xmlns="http://www.w3.org/2000/svg">
<path d="M26.4262 10.3437L29.6571 13.5747M28.5033 7.4974L19.7629 16.2379C19.3099 16.6879 19.0017 17.2629 18.8777 17.8892L18.0703 21.9306L22.1117 21.1217C22.7374 20.9965 23.3112 20.6898 23.763 20.238L32.5035 11.4975C32.7661 11.2349 32.9745 10.9231 33.1166 10.5799C33.2588 10.2367 33.3319 9.86892 33.3319 9.49747C33.3319 9.12603 33.2588 8.75821 33.1166 8.41504C32.9745 8.07187 32.7661 7.76005 32.5035 7.4974C32.2408 7.23475 31.929 7.0264 31.5858 6.88425C31.2427 6.74211 30.8749 6.66895 30.5034 6.66895C30.132 6.66895 29.7642 6.74211 29.421 6.88425C29.0778 7.0264 28.766 7.23475 28.5033 7.4974Z" stroke="#C2C2C2" stroke-width="1.5" stroke-linecap="round" stroke-linejoin="round"/>
<path d="M30.2797 25.1858V29.8254C30.2797 30.6457 29.9538 31.4324 29.3738 32.0125C28.7937 32.5925 28.007 32.9184 27.1867 32.9184H10.1751C9.35473 32.9184 8.56801 32.5925 7.98796 32.0125C7.4079 31.4324 7.08203 30.6457 7.08203 29.8254V12.8137C7.08203 11.9934 7.4079 11.2067 7.98796 10.6266C8.56801 10.0466 9.35473 9.7207 10.1751 9.7207H14.8146" stroke="#C2C2C2" stroke-width="1.5" stroke-linecap="round" stroke-linejoin="round"/>
</svg>
