<svg width="105" height="106" viewBox="0 0 105 106" fill="none" xmlns="http://www.w3.org/2000/svg">
<g clip-path="url(#clip0_8406_108321)">
<path d="M31.1243 96.6496L34.8476 94.7266L35.4039 92.1982L42.294 90.8806L49.0045 87.4151L50.0672 84.5761L56.7951 83.3925L63.3484 80.0064C67.9023 77.6597 68.2139 71.2298 63.8924 68.4588L33.3743 48.8667C29.0528 46.0957 23.3335 49.0349 23.107 54.1795L22.7258 62.3896L24.3925 68.6234L22.3467 70.5964L21.9574 78.9883L23.6322 84.9502L21.598 86.7573L21.4279 90.4089C21.1686 95.5325 26.5704 98.9963 31.1243 96.6496Z" fill="white"/>
<path d="M35.6678 82.0112C30.8794 79.1649 26.5171 75.4345 22.3433 70.686L22.7279 62.4274C27.8046 69.1938 32.8959 73.9669 38.4763 77.2818C43.8561 80.4774 49.8205 82.3939 56.8879 83.3429L48.976 87.4286C44.204 86.2283 39.8078 84.4673 35.6704 82.0106M27.8937 91.6854C25.604 90.3088 23.49 88.6593 21.5981 86.7731L21.9652 78.8588C24.7289 82.4489 27.5151 85.0602 30.7061 86.9608C33.8899 88.8545 37.6123 90.1211 42.359 90.8456L34.7987 94.7502C32.3873 93.9963 30.0704 92.968 27.8937 91.6854Z" fill="#40A9FF"/>
<path d="M66.4235 77.0853C69.3625 72.5019 62.3387 62.7775 50.7493 55.3461C39.1599 47.9147 27.4186 45.5834 24.4796 50.1668C21.5407 54.7502 28.5644 64.4745 40.1538 71.9059C51.7433 79.3373 63.5055 81.6359 66.4235 77.0853Z" fill="#0050B3"/>
<path d="M35.4594 32.0104C37.7699 34.7091 39.5199 37.841 40.6072 41.2232C41.6946 44.6054 42.0975 48.1703 41.7925 51.7099C41.3162 57.7732 38.7823 63.4917 34.6106 67.9175C32.8318 66.4767 31.2412 64.9947 29.8503 63.5253C33.0341 60.1552 34.9718 55.7989 35.3425 51.1776C35.8058 45.6997 34.1091 40.3845 30.5501 36.2082C29.3766 34.832 29.5507 32.7954 30.9058 31.6547C32.282 30.4812 34.3186 30.6553 35.4594 32.0104ZM69.3214 51.1895C71.3172 48.7562 73.9071 46.879 76.8407 45.7397C79.7743 44.6003 82.9523 44.2373 86.0673 44.6857C86.4422 44.7391 86.8239 44.7181 87.1906 44.6239C87.5573 44.5298 87.902 44.3643 88.2047 44.137C88.5075 43.9096 88.7626 43.6249 88.9553 43.299C89.1481 42.9731 89.2747 42.6124 89.3281 42.2375C89.3814 41.8627 89.3604 41.481 89.2663 41.1142C89.1721 40.7475 89.0066 40.4029 88.7793 40.1001C88.552 39.7973 88.2672 39.5423 87.9413 39.3495C87.6154 39.1568 87.2547 39.0301 86.8799 38.9768C82.7838 38.387 78.6049 38.8647 74.7476 40.3638C70.8904 41.8629 67.4856 44.3326 64.8628 47.5336C64.6228 47.8264 64.4427 48.1636 64.333 48.5259C64.2232 48.8882 64.186 49.2686 64.2232 49.6454C64.2605 50.0221 64.3716 50.3879 64.5502 50.7217C64.7288 51.0555 64.9714 51.3508 65.2642 51.5909C65.5569 51.8309 65.8941 52.011 66.2564 52.1207C66.6188 52.2305 66.9992 52.2678 67.3759 52.2305C67.7527 52.1932 68.1184 52.0821 68.4522 51.9035C68.786 51.7249 69.0814 51.4823 69.3214 51.1895ZM21.8359 41.8007C22.6624 41.62 23.3833 41.1184 23.84 40.4062C24.2966 39.694 24.4517 38.8296 24.271 38.003C24.0903 37.1765 23.5887 36.4556 22.8765 35.9989C22.1643 35.5423 21.2999 35.3872 20.4734 35.5679C19.6468 35.7486 18.9259 36.2502 18.4693 36.9624C18.0126 37.6746 17.8575 38.539 18.0382 39.3656C18.2189 40.1921 18.7205 40.913 19.4327 41.3697C20.1449 41.8263 21.0093 41.9814 21.8359 41.8007ZM75.2081 26.868C75.3888 27.6945 75.2338 28.559 74.7771 29.2712C74.3204 29.9834 73.5995 30.485 72.773 30.6657C71.9465 30.8464 71.082 30.6913 70.3698 30.2346C69.6576 29.778 69.156 29.0571 68.9753 28.2305C68.7947 27.404 68.9497 26.5396 69.4064 25.8274C69.8631 25.1152 70.584 24.6136 71.4105 24.4329C72.237 24.2522 73.1015 24.4072 73.8136 24.8639C74.5259 25.3206 75.0275 26.0415 75.2081 26.868Z" fill="#40A9FF"/>
<path d="M35.8782 22.596C36.0278 23.28 35.8994 23.9955 35.5215 24.5849C35.1436 25.1743 34.547 25.5894 33.8629 25.7389C33.1789 25.8885 32.4635 25.7601 31.8741 25.3822C31.2847 25.0042 30.8696 24.4076 30.72 23.7236C30.5705 23.0396 30.6988 22.3242 31.0768 21.7348C31.4547 21.1454 32.0513 20.7303 32.7353 20.5807C33.4194 20.4312 34.1348 20.5595 34.7242 20.9375C35.3136 21.3154 35.7287 21.912 35.8782 22.596ZM82.7867 69.9072C82.9378 70.5984 82.8081 71.3212 82.4263 71.9168C82.0444 72.5123 81.4416 72.9318 80.7504 73.0829C80.0593 73.2339 79.3364 73.1043 78.7409 72.7224C78.1453 72.3405 77.7259 71.7377 77.5748 71.0466C77.4237 70.3554 77.5533 69.6326 77.9352 69.037C78.3171 68.4415 78.9199 68.022 79.6111 67.8709C80.3022 67.7199 81.0251 67.8495 81.6206 68.2314C82.2162 68.6133 82.6356 69.2161 82.7867 69.9072Z" fill="#C2C2C2"/>
<path d="M60.4696 17.3826C59.954 17.0916 59.3549 16.9844 58.7704 17.0785C58.0655 17.1939 57.4342 17.5817 57.0126 18.1583C56.591 18.735 56.4129 19.4542 56.5167 20.1609C56.9747 23.1572 56.1016 28.9498 55.716 30.9201C55.7173 30.9348 55.7158 30.9492 55.7113 30.9633C55.7055 30.9796 55.704 30.994 55.7067 31.0066C55.6409 31.3925 55.5633 31.7754 55.4737 32.1553C54.2759 31.1917 52.817 30.6086 51.285 30.4813L51.1985 30.472C47.3074 30.0559 43.7869 32.8804 43.3767 36.7984C43.1732 38.7007 43.7187 40.552 44.9156 42.0356C46.1126 43.5192 47.8066 44.4437 49.7089 44.6472C49.9129 44.6701 50.1133 44.6685 50.3103 44.6424C51.7521 44.7138 53.067 44.4404 54.2549 43.8223C54.2601 44.209 54.2517 44.5958 54.2297 44.9819C54.159 46.4611 55.3089 47.7298 56.7882 47.8006C57.501 47.8342 58.1981 47.5837 58.7265 47.1041C59.2549 46.6244 59.5715 45.9548 59.6068 45.2421C59.7341 42.9412 59.508 40.6344 58.9363 38.402C59.9496 36.3414 60.6459 34.1737 61.025 31.8989L61.0441 31.7934C61.278 30.4811 62.5096 23.5856 61.8469 19.3053C61.6917 18.4666 61.1722 17.7639 60.4696 17.3826ZM50.7596 35.8038C51.5524 35.8894 52.4031 36.1369 53.0955 37.759C52.0421 39.2757 51.1638 39.327 50.357 39.2416C50.2605 39.2313 50.1635 39.2262 50.0665 39.2262C49.6889 39.1385 49.3543 38.9207 49.1213 38.6109C48.9734 38.4372 48.8645 38.2337 48.802 38.0143C48.7394 37.7949 48.7247 37.5646 48.7588 37.339C48.8605 36.3878 49.7219 35.6928 50.6731 35.7945L50.7596 35.8038ZM59.747 57.3438C68.3502 52.7889 78.1938 51.8475 87.4903 54.7133C89.2154 55.2651 90.1697 57.0551 89.6657 58.7416C89.1408 60.4609 87.3239 61.4211 85.6047 60.8961C81.8479 59.7377 77.8992 59.333 73.9855 59.7055C70.0719 60.0779 66.2704 61.2201 62.7995 63.0665C56.9695 66.1425 52.4488 70.959 49.7111 76.8496C47.8257 76.0795 45.8512 75.1599 43.8684 74.0733C47.183 66.9588 52.6827 61.0838 59.747 57.3438ZM54.6349 55.1538C54.814 55.9732 54.6603 56.8302 54.2075 57.5363C53.7548 58.2423 53.0401 58.7396 52.2207 58.9187C51.4013 59.0979 50.5443 58.9441 49.8383 58.4914C49.1322 58.0387 48.6349 57.324 48.4558 56.5046C48.2767 55.6852 48.4304 54.8282 48.8831 54.1221C49.3359 53.4161 50.0505 52.9188 50.8699 52.7397C51.6893 52.5605 52.5463 52.7142 53.2524 53.167C53.9584 53.6197 54.4557 54.3344 54.6349 55.1538Z" fill="#999999"/>
</g>
<defs>
<clipPath id="clip0_8406_108321">
<rect width="88" height="88" fill="white" transform="translate(0 19.293) rotate(-12.3311)"/>
</clipPath>
</defs>
</svg>
