<svg width="48" height="48" viewBox="0 0 48 48" fill="none" xmlns="http://www.w3.org/2000/svg">
<path d="M12.25 6C10.5924 6 9.00269 6.65848 7.83058 7.83058C6.65848 9.00269 6 10.5924 6 12.25V35.75C6 37.4076 6.65848 38.9973 7.83058 40.1694C9.00269 41.3415 10.5924 42 12.25 42H35.75C37.4076 42 38.9973 41.3415 40.1694 40.1694C41.3415 38.9973 42 37.4076 42 35.75V12.25C42 10.5924 41.3415 9.00269 40.1694 7.83058C38.9973 6.65848 37.4076 6 35.75 6H12.25Z" fill="#40A9FF"/>
<path d="M17 15.749C17 15.2186 16.7893 14.7099 16.4142 14.3348C16.0391 13.9597 15.5304 13.749 15 13.749C14.4696 13.749 13.9609 13.9597 13.5858 14.3348C13.2107 14.7099 13 15.2186 13 15.749C13 16.2795 13.2107 16.7882 13.5858 17.1632C13.9609 17.5383 14.4696 17.749 15 17.749C15.5304 17.749 16.0391 17.5383 16.4142 17.1632C16.7893 16.7882 17 16.2795 17 15.749ZM17 23.749C17 23.2186 16.7893 22.7099 16.4142 22.3348C16.0391 21.9597 15.5304 21.749 15 21.749C14.4696 21.749 13.9609 21.9597 13.5858 22.3348C13.2107 22.7099 13 23.2186 13 23.749C13 24.2795 13.2107 24.7882 13.5858 25.1632C13.9609 25.5383 14.4696 25.749 15 25.749C15.5304 25.749 16.0391 25.5383 16.4142 25.1632C16.7893 24.7882 17 24.2795 17 23.749ZM15 33.749C15.5304 33.749 16.0391 33.5383 16.4142 33.1632C16.7893 32.7882 17 32.2795 17 31.749C17 31.2186 16.7893 30.7099 16.4142 30.3348C16.0391 29.9597 15.5304 29.749 15 29.749C14.4696 29.749 13.9609 29.9597 13.5858 30.3348C13.2107 30.7099 13 31.2186 13 31.749C13 32.2795 13.2107 32.7882 13.5858 33.1632C13.9609 33.5383 14.4696 33.749 15 33.749ZM19 15.749C19 16.439 19.56 16.999 20.25 16.999H33.75C34.0815 16.999 34.3995 16.8673 34.6339 16.6329C34.8683 16.3985 35 16.0805 35 15.749C35 15.4175 34.8683 15.0996 34.6339 14.8651C34.3995 14.6307 34.0815 14.499 33.75 14.499H20.25C19.56 14.499 19 15.059 19 15.749ZM20.25 22.499C19.9185 22.499 19.6005 22.6307 19.3661 22.8651C19.1317 23.0996 19 23.4175 19 23.749C19 24.0805 19.1317 24.3985 19.3661 24.6329C19.6005 24.8673 19.9185 24.999 20.25 24.999H33.75C34.0815 24.999 34.3995 24.8673 34.6339 24.6329C34.8683 24.3985 35 24.0805 35 23.749C35 23.4175 34.8683 23.0996 34.6339 22.8651C34.3995 22.6307 34.0815 22.499 33.75 22.499H20.25ZM19 31.749C19 32.439 19.56 32.999 20.25 32.999H33.75C34.0815 32.999 34.3995 32.8673 34.6339 32.6329C34.8683 32.3985 35 32.0805 35 31.749C35 31.4175 34.8683 31.0996 34.6339 30.8651C34.3995 30.6307 34.0815 30.499 33.75 30.499H20.25C19.56 30.499 19 31.059 19 31.749Z" fill="#F8F9F9"/>
</svg>
