<svg width="141" height="55" viewBox="0 0 141 55" fill="none" xmlns="http://www.w3.org/2000/svg">
<path d="M95.7599 51.9425C94.9638 51.7844 94.162 51.6572 93.3755 51.4664C88.5914 50.3051 85.1214 47.5483 83.3198 43.2086C80.8706 37.3097 81.0001 31.3399 83.9635 25.6154C86.1251 21.4411 89.6827 18.7606 94.6229 18.1318C102.035 17.1904 107.859 21.1739 109.447 28.1614C109.965 30.4439 110.085 32.7573 109.979 35.1907H85.6966C85.1367 40.3536 87.8905 45.422 92.0861 47.5792C94.6305 48.8876 97.3349 49.0312 100.125 48.5151C102.946 47.9935 105.086 46.4688 106.859 44.3462C107.665 44.9296 108.417 45.4729 109.249 46.0763C108.316 47.4701 107.145 48.5841 105.77 49.5128C103.863 50.7994 101.719 51.4791 99.4184 51.7607C99.148 51.7935 98.8852 51.8789 98.6185 51.9407H95.7618L95.7599 51.9425ZM106.206 32.0613C106.145 31.3544 106.124 30.7492 106.037 30.155C105.507 26.6204 104.056 23.5237 100.494 21.9899C93.1488 18.8242 86.287 24.3596 85.828 32.0613H106.206Z" fill="white"/>
<path d="M66.2416 3.05748C66.253 3.45002 66.2721 3.84437 66.2721 4.2369C66.2721 18.4099 66.2721 32.5812 66.2721 46.7542V48.0336C66.7501 48.0336 67.1196 48.0336 67.491 48.0336C72.5683 48.0336 77.6457 48.0445 82.725 48.0209C83.4068 48.0172 83.8829 48.179 84.3628 48.686C85.1817 49.5528 86.1321 50.3088 87.0691 51.1502H62.3355V50.0108C62.3355 34.7783 62.3355 19.5458 62.3317 4.31323C62.3317 3.89343 62.2727 3.47546 62.2422 3.05566C63.5753 3.05566 64.9085 3.05566 66.2416 3.05566V3.05748Z" fill="white"/>
<path d="M46.4574 51.2467C44.3586 51.2467 42.3361 51.2467 40.3116 51.2467C39.2337 51.2467 38.1538 51.2176 37.0759 51.2594C36.5331 51.2812 36.3027 51.0941 36.1389 50.6107C35.2647 48.0556 34.3429 45.515 33.4669 42.9599C33.284 42.4256 33.0231 42.2039 32.3985 42.2075C27.3859 42.233 22.3732 42.2311 17.3625 42.2093C16.7798 42.2075 16.5303 42.4129 16.3589 42.9181C15.4904 45.4732 14.601 48.0247 13.6812 50.5634C13.5821 50.8342 13.2317 51.2122 12.9936 51.2158C9.82457 51.2594 6.65551 51.2449 3.33789 51.2449C3.4693 50.8796 3.55881 50.6089 3.66356 50.3417C9.15229 36.2704 14.6467 22.201 20.1183 8.12244C20.3564 7.51001 20.6611 7.30102 21.341 7.31193C23.7197 7.35191 26.1003 7.34464 28.479 7.31556C29.0694 7.30829 29.3703 7.46458 29.5893 8.02249C35.1314 22.2046 40.6963 36.3777 46.2536 50.5543C46.3279 50.7451 46.3717 50.9469 46.4593 51.2467H46.4574ZM19.2042 34.8057H30.6025C28.7038 29.4156 26.8316 24.1037 24.9614 18.7899C24.8967 18.8063 24.83 18.8226 24.7653 18.8408C22.9198 24.14 21.0744 29.4392 19.2061 34.8075L19.2042 34.8057Z" fill="white"/>
<path d="M49.0146 18.5439H58.1524V51.137H49.0146V18.5439Z" fill="white"/>
<path d="M124.54 34.6342C128.558 40.1533 132.531 45.6106 136.627 51.2369C135.081 51.2369 133.708 51.2697 132.338 51.2079C132.089 51.197 131.809 50.8299 131.626 50.5736C128.748 46.5138 125.886 42.4467 123.018 38.3796C122.843 38.1325 122.662 37.8908 122.399 37.5291C121.258 39.1392 120.167 40.6749 119.081 42.2141C117.116 45 115.143 47.7805 113.204 50.5809C112.871 51.0643 112.526 51.2787 111.903 51.2588C110.416 51.2115 108.925 51.2442 107.439 51.2442C107.426 51.1515 107.395 51.0679 107.416 51.0534C110.094 49.2143 111.587 46.4502 113.448 43.9823C115.596 41.1346 117.634 38.2124 119.754 35.3447C120.142 34.8195 120.161 34.467 119.763 33.9236C116.259 29.1387 112.789 24.3283 109.309 19.5252C109.13 19.2781 108.961 19.0237 108.679 18.6166C110.208 18.6166 111.61 18.5893 113.01 18.6457C113.229 18.6548 113.467 19.0255 113.634 19.2672C116.52 23.3924 119.397 27.5231 122.349 31.7592C122.582 31.4539 122.784 31.2104 122.963 30.9524C125.652 27.0997 128.354 23.2561 131.009 19.3817C131.43 18.7692 131.881 18.5421 132.628 18.5802C133.723 18.6366 134.824 18.5948 136.147 18.5948C132.205 24.0412 128.396 29.3077 124.54 34.636V34.6342Z" fill="white"/>
<path d="M61.1992 9.70945C58.9805 10.2346 57.4817 11.3777 56.9979 13.673C56.4495 11.4286 55.0287 10.2019 52.6348 9.71127C55.0287 9.26603 56.4418 8.03754 56.9789 5.82227C57.6512 8.11387 58.7082 9.07885 61.1992 9.70945Z" fill="white"/>
<path d="M48.5372 6.06179C47.0594 6.42525 46.1566 7.14126 45.6996 8.56057C45.2082 7.15398 44.315 6.41798 42.8447 6.06543C44.3302 5.73286 45.2044 4.96415 45.7015 3.58301C46.1566 4.97869 47.0308 5.72014 48.5353 6.06179H48.5372Z" fill="white"/>
<path d="M44.8867 15.5684C44.3268 15.0814 43.6945 14.5326 43.2031 14.1055C43.7173 13.6548 44.3363 13.1133 44.8867 12.6299C45.3952 13.0806 46.0161 13.6312 46.5493 14.1055C46.056 14.5399 45.4276 15.0923 44.8848 15.5684H44.8867Z" fill="white"/>
</svg>
