<svg width="32" height="32" viewBox="0 0 32 32" fill="none" xmlns="http://www.w3.org/2000/svg">
<path d="M0 8C0 3.58172 3.58172 0 8 0H24C28.4183 0 32 3.58172 32 8V24C32 28.4183 28.4183 32 24 32H8C3.58172 32 0 28.4183 0 24V8Z" fill="white" fill-opacity="0.01"/>
<path d="M16.6484 22.375C16.8555 22.0164 17.3142 21.8937 17.6729 22.1006C18.0315 22.3077 18.1543 22.7663 17.9473 23.125C17.7498 23.4669 17.4659 23.7508 17.124 23.9482C16.782 24.1457 16.3939 24.25 15.999 24.25C15.6042 24.25 15.216 24.1456 14.874 23.9482C14.5321 23.7508 14.2482 23.4669 14.0508 23.125C13.8437 22.7663 13.9665 22.3077 14.3252 22.1006C14.6839 21.8935 15.1425 22.0163 15.3496 22.375C15.4154 22.4889 15.5101 22.5836 15.624 22.6494C15.738 22.7152 15.8675 22.75 15.999 22.75C16.1306 22.75 16.2601 22.7152 16.374 22.6494C16.4879 22.5836 16.5826 22.4889 16.6484 22.375ZM15.999 7.75C17.3913 7.75011 18.7274 8.30361 19.7119 9.28809C20.6962 10.2726 21.249 11.6078 21.249 13C21.249 14.6084 21.5015 15.6089 21.8311 16.3066C22.0788 16.8311 22.3839 17.2168 22.7314 17.5938L23.0928 17.9727L23.1094 17.9902C23.3049 18.2052 23.4339 18.4729 23.4805 18.7598C23.527 19.0466 23.4886 19.3407 23.3711 19.6064C23.2536 19.872 23.0617 20.0983 22.8184 20.2568C22.6052 20.3956 22.36 20.4778 22.1074 20.4961L21.999 20.5H9.99902C9.70844 20.4998 9.42406 20.4146 9.18066 20.2559C8.93738 20.0971 8.74524 19.8712 8.62793 19.6055C8.51066 19.3395 8.4726 19.0447 8.51953 18.7578C8.56647 18.4711 8.69581 18.204 8.8916 17.9893L8.90723 17.9727C9.40554 17.4582 9.83759 17.006 10.168 16.3066C10.4563 15.6962 10.6855 14.8536 10.7383 13.5752L10.749 13C10.749 11.6077 11.3027 10.2726 12.2871 9.28809C13.2716 8.30375 14.6069 7.75011 15.999 7.75ZM15.999 9.25C15.0047 9.25011 14.0508 9.6456 13.3477 10.3486C12.6445 11.0519 12.249 12.0055 12.249 13C12.249 14.7653 11.9726 15.9982 11.5244 16.9473C11.0816 17.8846 10.4936 18.4904 10 19H22C21.5053 18.4901 20.9173 17.8851 20.4746 16.9482C20.0261 15.999 19.749 14.7656 19.749 13C19.749 12.0057 19.3543 11.0518 18.6514 10.3486C17.9482 9.64547 16.9934 9.25011 15.999 9.25Z" fill="#8A8A8E"/>
</svg>
