<svg width="32" height="32" viewBox="0 0 32 32" fill="none" xmlns="http://www.w3.org/2000/svg">
<path d="M0 8C0 3.58172 3.58172 0 8 0H24C28.4183 0 32 3.58172 32 8V24C32 28.4183 28.4183 32 24 32H8C3.58172 32 0 28.4183 0 24V8Z" fill="white" fill-opacity="0.01"/>
<path d="M16.7578 22.4385C16.9304 22.1396 17.3124 22.0375 17.6113 22.21C17.91 22.3826 18.0132 22.7647 17.8408 23.0635C17.6543 23.3863 17.3854 23.6544 17.0625 23.8408C16.7395 24.0272 16.3729 24.126 16 24.126C15.6272 24.1259 15.2604 24.0272 14.9375 23.8408C14.6148 23.6544 14.3466 23.3862 14.1602 23.0635C13.9876 22.7646 14.0899 22.3826 14.3887 22.21C14.6876 22.0374 15.0696 22.1396 15.2422 22.4385C15.319 22.5713 15.4297 22.6821 15.5625 22.7588C15.6954 22.8355 15.8466 22.8759 16 22.876C16.1534 22.876 16.3046 22.8355 16.4375 22.7588C16.5704 22.6821 16.681 22.5713 16.7578 22.4385ZM15.2402 7.93164C16.0445 7.81107 16.866 7.88386 17.6367 8.14355C17.9637 8.25375 18.1392 8.60856 18.0293 8.93555C17.9189 9.26239 17.5643 9.43829 17.2373 9.32812C16.6546 9.13181 16.0329 9.07676 15.4248 9.16797C14.8168 9.25927 14.2386 9.49392 13.7393 9.85254C13.2399 10.2112 12.8334 10.6844 12.5527 11.2314C12.2721 11.7786 12.1251 12.3851 12.125 13C12.125 14.7522 11.8506 15.9663 11.4121 16.8945C10.9782 17.8128 10.4019 18.4057 9.90723 18.916L9.8877 18.9453C9.88242 18.9561 9.87893 18.9685 9.87695 18.9805C9.87317 19.0042 9.87608 19.0288 9.88574 19.0508C9.89549 19.0728 9.91154 19.0913 9.93164 19.1045C9.95193 19.1177 9.97579 19.125 10 19.125H22.001C22.0249 19.1249 22.0483 19.1176 22.0684 19.1045C22.0885 19.0913 22.1055 19.0728 22.1152 19.0508C22.1248 19.0289 22.1278 19.0041 22.124 18.9805C22.1201 18.9567 22.109 18.9338 22.0928 18.916V18.915C21.9296 18.746 21.7742 18.5695 21.6279 18.3857C21.4131 18.1157 21.4575 17.7227 21.7275 17.5078C21.9975 17.2932 22.3906 17.3376 22.6055 17.6074C22.6681 17.686 22.7325 17.7634 22.7988 17.8389L23.0039 18.0596L23.0176 18.0752C23.1967 18.2722 23.3147 18.5175 23.3574 18.7803C23.4 19.043 23.3654 19.3132 23.2578 19.5566C23.1501 19.8 22.9739 20.0071 22.751 20.1523C22.5277 20.2977 22.2664 20.3751 22 20.375H10C9.7337 20.375 9.4732 20.2976 9.25 20.1523C9.02675 20.007 8.84997 19.8002 8.74219 19.5566C8.63455 19.3132 8.60002 19.0431 8.64258 18.7803C8.68532 18.5174 8.80418 18.2722 8.9834 18.0752L8.99609 18.0605C9.49495 17.5459 9.94098 17.0804 10.2812 16.3604C10.6208 15.6417 10.875 14.6214 10.875 13C10.8751 12.1867 11.0692 11.3848 11.4404 10.6611C11.8117 9.93746 12.3501 9.31239 13.0107 8.83789C13.6714 8.36345 14.4359 8.05233 15.2402 7.93164Z" fill="#8A8A8E"/>
<path d="M20.5 15.25C21.7426 15.25 22.75 14.2426 22.75 13C22.75 11.7574 21.7426 10.75 20.5 10.75C19.2574 10.75 18.25 11.7574 18.25 13C18.25 14.2426 19.2574 15.25 20.5 15.25Z" fill="#69C0FF" stroke="#69C0FF" stroke-linecap="round" stroke-linejoin="round"/>
</svg>
