<svg width="40" height="40" viewBox="0 0 40 40" fill="none" xmlns="http://www.w3.org/2000/svg">
<path d="M17.4404 8.26256C18.0918 5.57915 21.9082 5.57915 22.5596 8.26256C22.9804 9.996 24.9664 10.8186 26.4897 9.89047C28.8478 8.45365 31.5464 11.1522 30.1095 13.5103C29.1814 15.0336 30.004 17.0196 31.7374 17.4404C34.4209 18.0918 34.4209 21.9082 31.7374 22.5596C30.004 22.9804 29.1814 24.9664 30.1095 26.4897C31.5464 28.8478 28.8478 31.5464 26.4897 30.1095C24.9664 29.1814 22.9804 30.004 22.5596 31.7374C21.9082 34.4209 18.0918 34.4209 17.4404 31.7374C17.0196 30.004 15.0336 29.1814 13.5103 30.1095C11.1522 31.5464 8.45365 28.8478 9.89047 26.4897C10.8186 24.9664 9.996 22.9804 8.26256 22.5596C5.57915 21.9082 5.57915 18.0918 8.26256 17.4404C9.996 17.0196 10.8186 15.0336 9.89046 13.5103C8.45365 11.1522 11.1522 8.45365 13.5103 9.89046C15.0336 10.8186 17.0196 9.996 17.4404 8.26256Z" stroke="#656565" stroke-width="1.5" stroke-linecap="round" stroke-linejoin="round"/>
<path d="M24.5833 20C24.5833 22.5313 22.5313 24.5833 20 24.5833C17.4687 24.5833 15.4167 22.5313 15.4167 20C15.4167 17.4687 17.4687 15.4167 20 15.4167C22.5313 15.4167 24.5833 17.4687 24.5833 20Z" stroke="#656565" stroke-width="1.5" stroke-linecap="round" stroke-linejoin="round"/>
<path d="M24.5846 20.0003C24.5846 22.5316 22.5326 24.5837 20.0013 24.5837C17.47 24.5837 15.418 22.5316 15.418 20.0003C15.418 17.469 17.47 15.417 20.0013 15.417C22.5326 15.417 24.5846 17.469 24.5846 20.0003Z" stroke="#40A9FF" stroke-width="1.5" stroke-linecap="round" stroke-linejoin="round"/>
</svg>
